<svg xmlns="http://www.w3.org/2000/svg" width="62" height="62" viewBox="0 0 62 62"><g transform="translate(-14.93 -190.54)"><path d="M45.93,190.54a31,31,0,1,0,31,31A30.991,30.991,0,0,0,45.93,190.54ZM26.6,232.43a2.756,2.756,0,0,1-1.04.2,2.711,2.711,0,0,1-2.488-1.653A2.7,2.7,0,1,1,26.6,232.43Zm5.624,6.527a2.636,2.636,0,0,1-3.817,0,2.7,2.7,0,0,1,0-3.817,2.726,2.726,0,0,1,3.817,0A2.665,2.665,0,0,1,32.228,238.957Zm7.686,3.9a2.685,2.685,0,0,1-2.488,1.653,2.537,2.537,0,0,1-1.04-.222v.017a2.758,2.758,0,0,1-1.466-3.545,2.708,2.708,0,0,1,4.993,2.1ZM39.42,216a6.89,6.89,0,0,0-1.312.256,2.351,2.351,0,0,0-.937.511,1.716,1.716,0,0,0-.494.852,3.025,3.025,0,0,0,.017,1.3l2.488,10.856a.476.476,0,0,1-.136.341.55.55,0,0,1-.358.136H36.4a.324.324,0,0,1-.256-.136.677.677,0,0,1-.119-.341l-2.437-9.493a9.55,9.55,0,0,1-.1-2.369,6.712,6.712,0,0,1,.477-1.875,4.6,4.6,0,0,1,2.25-2.335,7.268,7.268,0,0,1,1.551-.562,9.135,9.135,0,0,1,1.687-.2h.341c.17,0,.375-.017.6-.017.239,0,.477-.017.733-.017.256-.017.494-.017.716-.017s.409-.017.579-.017h.324a2.559,2.559,0,0,1,.341.034,1.131,1.131,0,0,1,.341.1.712.712,0,0,1,.256.187.43.43,0,0,1,.1.29v1.977a.505.505,0,0,1-.17.409.554.554,0,0,1-.409.17h-.545Zm8.334,29.4a2.72,2.72,0,0,1-1.926.784,2.785,2.785,0,0,1-1.909-.784,2.71,2.71,0,0,1-.784-1.909,2.646,2.646,0,0,1,.051-.528,2.537,2.537,0,0,1,.153-.511,1.341,1.341,0,0,1,.256-.46,1.9,1.9,0,0,1,.324-.409,2.814,2.814,0,0,1,3.835,0,2.634,2.634,0,0,1,.324.409,2,2,0,0,1,.256.46,3.592,3.592,0,0,1,.17.511,2.582,2.582,0,0,1,.034.528A2.865,2.865,0,0,1,47.754,245.4Zm10.668-29.977a.483.483,0,0,1-.17.375.6.6,0,0,1-.409.17H52.014a1.008,1.008,0,0,0-.545.665,1.429,1.429,0,0,0,.136.852,4.7,4.7,0,0,0,.648,1.005q.435.537.971,1.125h3.221a.553.553,0,0,1,.409.153.564.564,0,0,1,.17.409v1.994a.494.494,0,0,1-.17.392.629.629,0,0,1-.409.17l-3.46.017a3.1,3.1,0,0,0-.988.46,2.586,2.586,0,0,0-.7.733,2.4,2.4,0,0,0-.375.886,2.02,2.02,0,0,0,0,.9,1.927,1.927,0,0,0,.426.8,2.206,2.206,0,0,0,.9.6h5.59a.505.505,0,0,1,.409.17.547.547,0,0,1,.17.375v1.994a.505.505,0,0,1-.17.409.629.629,0,0,1-.409.17H52.167a3.948,3.948,0,0,1-1.824-.443,4.655,4.655,0,0,1-1.466-1.176,5.034,5.034,0,0,1-1.108-3.749,5.271,5.271,0,0,1,.75-2.113,7.017,7.017,0,0,1,1.858-2.011c-.239-.307-.477-.6-.7-.869a9.533,9.533,0,0,1-.614-.835,5.7,5.7,0,0,1-.477-.9,4.681,4.681,0,0,1-.307-1.074,4.8,4.8,0,0,1,.307-1.755,4.019,4.019,0,0,1,.835-1.329,3.9,3.9,0,0,1,1.244-.835,3.734,3.734,0,0,1,1.5-.29h5.675a.505.505,0,0,1,.409.17.6.6,0,0,1,.17.409Zm9.356,13.515-6.34-9.186H65a19.24,19.24,0,0,0-38.4,1.789h-.017a2.847,2.847,0,0,1-.767,1.909,3.939,3.939,0,0,1-.409.341,2.357,2.357,0,0,1-.46.239,2.538,2.538,0,0,1-.511.153,2.953,2.953,0,0,1-.545.051,2.648,2.648,0,0,1-2.676-2.693h-.034a24.633,24.633,0,0,1,49.2-1.789h3.732Z" transform="translate(0)" fill="#fff"/></g></svg>