<svg xmlns="http://www.w3.org/2000/svg" width="59.742" height="53.552" viewBox="0 0 59.742 53.552"><rect width="9.38" height="11.872" rx="1.19" transform="translate(10.563 0)" fill="#fff"/><path d="M93.874,165.53H91.382v3.929a4.626,4.626,0,0,1-4.605,4.605H82.4a4.626,4.626,0,0,1-4.605-4.605V165.53H62.145v3.929a4.626,4.626,0,0,1-4.626,4.605H53.166a4.626,4.626,0,0,1-4.626-4.605V165.53H46.068a5.978,5.978,0,0,0-5.978,5.978V207.7a5.978,5.978,0,0,0,5.978,5.957H93.874a5.978,5.978,0,0,0,5.957-5.957V171.508a5.978,5.978,0,0,0-5.957-5.978Zm-37.666,37.5H47.061v-8.154h9.147Zm12.231,0H59.272v-8.154H68.44Zm0-10.879H59.272v-8.133H68.44Zm12.21,10.879H71.587v-8.154h9.147Zm0-10.879H71.587v-8.133h9.147Zm12.21,10.879H83.713v-8.154H92.86Zm0-10.879H83.713v-8.133H92.86Z" transform="translate(-40.09 -160.101)" fill="#fff"/><rect width="9.38" height="11.872" rx="1.19" transform="translate(39.8 0)" fill="#fff"/></svg>