<svg xmlns="http://www.w3.org/2000/svg" width="60.185" height="54.925" viewBox="0 0 60.185 54.925"><rect width="7.943" height="10.056" rx="1.01" transform="translate(8.978)" fill="#fff"/><path d="M85.689,204.451H83.576v3.3a3.929,3.929,0,0,1-3.929,3.929H75.971a3.908,3.908,0,0,1-3.908-3.929V204.43H58.8v3.317a3.908,3.908,0,0,1-3.908,3.929h-3.7a3.929,3.929,0,0,1-3.929-3.929V204.43H45.15a5.091,5.091,0,0,0-5.07,5.07v30.674a5.091,5.091,0,0,0,5.07,5.07H85.689a5.091,5.091,0,0,0,5.07-5.07V209.521a5.091,5.091,0,0,0-5.07-5.07Zm-31.92,31.688H46.016v-6.887h7.753Zm10.351,0H56.367v-6.887H64.12Zm0-9.211H56.367v-6.887H64.12Zm10.372,9.211H66.74v-6.887h7.753Zm0-9.211H66.74v-6.887h7.753Zm10.351,9.211H77.091v-6.887h7.753Zm0-9.211H77.091v-6.887h7.753Z" transform="translate(-40.08 -199.846)" fill="#fff"/><rect width="7.943" height="10.056" rx="1.01" transform="translate(33.758)" fill="#fff"/><path d="M84.12,252.624H47.828a6.337,6.337,0,0,1-6.338-6.337H84.12a8.26,8.26,0,0,0,8.239-8.239V206.36h0A6.337,6.337,0,0,1,98.7,212.7v25.35A14.576,14.576,0,0,1,84.12,252.624Z" transform="translate(-38.511 -197.699)" fill="#fff"/></svg>