<svg version="1" xmlns="http://www.w3.org/2000/svg" width="933.333" height="933.333" viewBox="0 0 700.000000 700.000000"><path d="M62.3 83c-32.7.5-34.3.6-37 2.6-6.6 4.9-9.4 12.6-7.3 19.7 1.5 5.3 7.6 11.2 12.1 11.9 1.9.3 14.7.5 28.5.4l25.1-.1 2.7 8.5c1.5 4.7 4.7 14.6 7.1 22 2.4 7.4 7.3 22.8 10.9 34.1l6.6 20.6 259.8-.2c142.8-.1 260 0 260.3.2.3.1-2 8.2-5.3 18-3.2 9.8-6.3 19.5-6.8 21.5l-1.1 3.8H372c-135.3 0-246 .3-246 .6 0 .6 13.1 41.7 17 53.4 1 3 6.6 20.3 12.5 38.5 5.8 18.1 11.4 35.2 12.3 38l1.7 5 201 .2c110.6.1 201.5.2 202.1.2 1.1.1-13.4 46.2-14.9 47.8-.3.3-83.9.6-185.7.6-101.8 0-185.2.3-185.5.7-.5.8 8.6 28.4 10.7 32.5 1.9 3.7 7 8.1 11.8 10.2 3.1 1.5 21.3 1.6 180.3 1.8 187.4.1 180 .3 187.1-4.6 6.8-4.6 6.4-3.7 25.1-61.4 5.9-18.2 13.6-41.8 17.1-52.5 3.5-10.8 6.4-19.8 6.4-20.1 0-.3-96.9-.5-215.3-.5-118.3.1-215.9 0-216.8-.2-1.1-.2-3.6-6.7-8.4-21.5-3.7-11.7-7-21.7-7.2-22.3-.3-.8 63.2-1.1 230.7-1.1 127 0 231.3-.2 231.6-.6.5-.5 12.7-38.1 28.5-87.7 2.2-6.9 6.4-19.8 9.4-28.8 2.9-8.9 5-16.4 4.7-16.5-.4-.2-122.2-.4-270.7-.5-148.5-.1-271.9-.2-274.2-.2-3.4 0-4.3-.4-4.8-2.3-3.3-10.8-22.9-70.4-23.5-71-1-1.2-7.9-1.3-46.7-.7zM252.2 497.1c-19.3 3.3-38.2 19-45.1 37.4-3 7.9-3.3 9.9-3.7 20.7-.6 16.6 4.7 30.6 16.3 42.8 22.4 23.8 59.9 25.3 84.1 3.5 9.5-8.7 17-21.8 19-33.5 1.1-6.2.7-21.4-.7-26.5-7.3-26-29.3-43.9-55.6-45-4.9-.2-11.4.1-14.3.6zm25.3 30.2c6.5 3.2 11.9 8.5 15.2 15 2.3 4.4 2.7 6.5 2.7 13.7.1 7.2-.3 9.4-2.6 14.2-5.3 11.3-15.1 17.9-27.8 18.6-10.1.5-17.1-2.1-24.4-9.1-15.6-15.3-11.7-41.9 7.5-51.7 6.9-3.6 8.9-4 16.9-3.6 5.3.3 8.9 1.2 12.5 2.9zM507.5 497c-10.8 2.2-25.2 9.9-32.1 17.2-8.1 8.6-14.7 21.5-16.4 32.1-.7 4.7-.6 18.3.3 21.7.2.8.7 3.1 1.1 5 1.3 5.8 8.3 18.3 13.6 24.2 6.4 7.2 16.1 13.4 26.3 16.9 7.2 2.4 9.4 2.7 18.7 2.4 5.8-.1 11.2-.5 12-.7.8-.2 3.1-.8 5-1.3 1.9-.4 6.7-2.4 10.6-4.5 30-15.7 41.1-52.2 25.1-82.5-3.7-7-15.2-19-21.8-22.8-9.1-5.3-17.7-7.8-28.4-8.1-5.5-.2-11.8 0-14 .4zm25.1 30.2c6.5 3.3 8.9 5.3 12.5 10.5 10.9 15.6 6.4 37.5-9.6 46.9-16.4 9.6-37.3 3.4-46.1-13.7-2.4-4.6-2.8-6.6-2.9-13.9 0-7.7.3-9.1 3.3-15 6.1-11.9 16.7-18.1 30.2-17.7 5.8.2 8.7.9 12.6 2.9zM346.8 552.2c-.2 7.3-.2 15.2 0 17.5l.3 4.3 43.1.2c35.8.3 43.1.1 43.6-1.1.4-1.1.6-25.7.3-32.4-.1-1.6-2.9-1.7-43.5-1.7h-43.5l-.3 13.2z"/></svg>