<svg xmlns="http://www.w3.org/2000/svg" width="278.427" height="218.49" viewBox="0 0 278.427 218.49">
  <g id="logo" transform="translate(63.593 -13.634)">
    <g id="Layer_4" transform="translate(-63.593 199.614)">
      <path id="Path_3" data-name="Path 3" d="M16.684,1547.77a.668.668,0,0,1-.309.57.745.745,0,0,1-.451.1H14.26a.7.7,0,0,1-.713-.5c-.024-.071-.024-.166-.048-.238v-18.987a.767.767,0,0,1,.19-.5.647.647,0,0,1,.5-.214H16a.658.658,0,0,1,.547.309.787.787,0,0,1,.119.38Z" transform="translate(-13.5 -1523.033)" fill="#2e87aa"/>
      <path id="Path_4" data-name="Path 4" d="M29.272,1576.157a6.425,6.425,0,0,0,2.329.428v3.184a3.654,3.654,0,0,1-2.329-.855v1.117h-.024c0,1.236-.713,2.756-2.162,4.515a8.04,8.04,0,0,1-5.632,2.234H20.86a.694.694,0,0,1-.713-.5c-.024-.071-.024-.167-.048-.238v-1.711a.767.767,0,0,1,.19-.5.949.949,0,0,1,.451-.262h.19a5.4,5.4,0,0,0,3.754-1.307,4.05,4.05,0,0,0,1.378-2.376h-.048v-10.075a.71.71,0,0,1,.689-.713h1.853a.659.659,0,0,1,.547.309.8.8,0,0,1,.119.4Z" transform="translate(-18.532 -1554.368)" fill="#2e87aa"/>
      <path id="Path_5" data-name="Path 5" d="M66.96,1579.769a.964.964,0,0,1-.451-.095.669.669,0,0,1-.309-.57v-1.83a.7.7,0,0,1,.665-.689h3.659a2.473,2.473,0,0,0,1.83-.546,2.808,2.808,0,0,0,.5-1.9v-4.325a.8.8,0,0,1,.119-.4.659.659,0,0,1,.547-.309h1.806a.684.684,0,0,1,.5.214.767.767,0,0,1,.19.5v.452h.024v4.3a5.557,5.557,0,0,1-1.236,3.612,4.178,4.178,0,0,1-3.351,1.592Zm.832,6.25v-1.806a.737.737,0,0,1,.214-.523.681.681,0,0,1,.523-.237h7.2a.742.742,0,0,1,.594.309.8.8,0,0,1,.119.4v1.853a.732.732,0,0,1-.333.594.819.819,0,0,1-.475.1H68.552a.716.716,0,0,1-.737-.523c-.024,0-.024-.095-.024-.166Z" transform="translate(-53.677 -1554.367)" fill="#2e87aa"/>
      <path id="Path_6" data-name="Path 6" d="M134.474,1576.436a7.2,7.2,0,0,1-2.4,5.442,7.943,7.943,0,0,1-5.608,2.233h-2.352a.694.694,0,0,1-.713-.5.843.843,0,0,1-.048-.238v-1.711a.767.767,0,0,1,.19-.5.805.805,0,0,1,.451-.214v-.047h1.949a5.394,5.394,0,0,0,3.754-1.307,4.054,4.054,0,0,0,1.592-2.495h-4.254a4.043,4.043,0,0,1-2.424-.831c-.166-.143-.333-.286-.523-.476a3.97,3.97,0,0,1-1.093-2.8v-3.3a4.148,4.148,0,0,1,4.087-4.087h3.374a3.93,3.93,0,0,1,2.471.879c.19.167.38.333.57.523a5.38,5.38,0,0,1,.57.856,3.91,3.91,0,0,1,.451,2Zm-6.749-8.008a3.813,3.813,0,1,0,2.685,1.117A3.627,3.627,0,0,0,127.726,1568.428Z" transform="translate(-96.977 -1551.699)" fill="#2e87aa"/>
      <path id="Path_7" data-name="Path 7" d="M184.749,1576.157a6.425,6.425,0,0,0,2.329.428v3.184a3.654,3.654,0,0,1-2.329-.855v1.117h-.024c0,1.236-.713,2.756-2.162,4.515a8.04,8.04,0,0,1-5.632,2.234h-.594a.694.694,0,0,1-.713-.5.808.808,0,0,1-.024-.238v-1.711a.766.766,0,0,1,.19-.5.948.948,0,0,1,.451-.262h.19a5.4,5.4,0,0,0,3.754-1.307,4.05,4.05,0,0,0,1.378-2.376h-.048v-10.075a.71.71,0,0,1,.689-.713h1.853a.659.659,0,0,1,.547.309.8.8,0,0,1,.119.4Z" transform="translate(-137.081 -1554.368)" fill="#2e87aa"/>
      <path id="Path_8" data-name="Path 8" d="M245.247,1573.741h1.378v3.184H230.443a4.589,4.589,0,0,1-3.9-1.877,5.874,5.874,0,0,1-4.325,1.877H220.7v-3.184h1.782c1.5,0,2.234-.784,2.234-2.329v-1.925a.767.767,0,0,1,.19-.5.647.647,0,0,1,.5-.214h1.782a.636.636,0,0,1,.547.285,1.2,1.2,0,0,1,.119.31h.024v1.616c0,1.83.808,2.733,2.4,2.733v-4.111a3.341,3.341,0,0,1,.594-2,3.116,3.116,0,0,1,.713-.855,8.27,8.27,0,0,1,.713-.523,6.059,6.059,0,0,1,3.065-.832H240.3a6.086,6.086,0,0,1,2.994.808,3.95,3.95,0,0,1,.808.594,3.648,3.648,0,0,1,1.283,2.685v3.279A2.212,2.212,0,0,1,245.247,1573.741Zm-10.218-7.3a3.778,3.778,0,1,0,3.778,3.778,3.816,3.816,0,0,0-1.117-2.685,3.755,3.755,0,0,0-2.661-1.093Z" transform="translate(-171.464 -1551.546)" fill="#2e87aa"/>
      <path id="Path_9" data-name="Path 9" d="M331.785,1568.684a2.3,2.3,0,0,0-1.236,2.163,3.432,3.432,0,0,0,.594,1.687,2.192,2.192,0,0,0,2,1.236h4.206c0,.024,0,.024-.024.048.547.024.9.119,1.046.309a.791.791,0,0,1,.119.38v1.782a.668.668,0,0,1-.309.57,1.151,1.151,0,0,1-.166.072l.024.047H326.7v-3.184h1.331a4.084,4.084,0,0,1-.665-2.21v-2a4.148,4.148,0,0,1,4.087-4.087h3.4a3.927,3.927,0,0,1,2.471.879c.19.166.38.332.57.522a4.349,4.349,0,0,1,.333.452.794.794,0,0,1,.214.808,3.119,3.119,0,0,1-.737,1.236l-.665.618-.309-.071-1-.76a4.415,4.415,0,0,0-2.614-.713A2.3,2.3,0,0,0,331.785,1568.684Z" transform="translate(-252.276 -1551.623)" fill="#2e87aa"/>
      <path id="Path_10" data-name="Path 10" d="M422.793,1582.944a5.685,5.685,0,0,1-1.759,4.277,6.062,6.062,0,0,1-4.348,1.711h-5.656a5.966,5.966,0,0,1-4.349-1.711,5.686,5.686,0,0,1-1.758-4.277l-.024-5.394a.7.7,0,0,1,.665-.689h1.854a.684.684,0,0,1,.5.214.662.662,0,0,1,.19.5v5.228a2.538,2.538,0,0,0,1.9,2.614,5.4,5.4,0,0,0,1.236.214h5.228a5.4,5.4,0,0,0,1.236-.214,2.556,2.556,0,0,0,1.9-2.614v-10.289a.768.768,0,0,1,.19-.5.647.647,0,0,1,.5-.214h1.83a.659.659,0,0,1,.547.309.79.79,0,0,1,.119.38Zm-10.6-5.228v-1.806a.737.737,0,0,1,.214-.523.681.681,0,0,1,.523-.238h1.877a.744.744,0,0,1,.594.309.8.8,0,0,1,.119.4v1.877a.732.732,0,0,1-.333.594.817.817,0,0,1-.475.1h-1.735a.715.715,0,0,1-.737-.523c-.048-.024-.048-.119-.048-.19Z" transform="translate(-311.893 -1556.425)" fill="#2e87aa"/>
      <path id="Path_11" data-name="Path 11" d="M493.96,1528.75h0l.024,13.26c0,1.45.238,2.353.713,2.685a4.136,4.136,0,0,0,2.186.4v3.184a8.367,8.367,0,0,1-4.016-.808,4.235,4.235,0,0,1-2.067-4.063V1528.75h.024v-.237a.711.711,0,0,1,.689-.713H493.3a.659.659,0,0,1,.546.309.8.8,0,0,1,.119.4Z" transform="translate(-377.382 -1522.881)" fill="#2e87aa"/>
      <path id="Path_12" data-name="Path 12" d="M514.06,1579.769a.964.964,0,0,1-.452-.095.669.669,0,0,1-.309-.57v-1.83a.7.7,0,0,1,.665-.689h3.66a2.472,2.472,0,0,0,1.83-.546,2.807,2.807,0,0,0,.5-1.9v-4.325a.8.8,0,0,1,.119-.4.659.659,0,0,1,.547-.309h1.806a.7.7,0,0,1,.689.713h0v.452h.024v4.3a5.557,5.557,0,0,1-1.236,3.612,4.178,4.178,0,0,1-3.351,1.592Zm.832,6.25v-1.806a.737.737,0,0,1,.214-.523.681.681,0,0,1,.523-.237h7.2a.742.742,0,0,1,.594.309.8.8,0,0,1,.119.4v1.853a.732.732,0,0,1-.333.594.781.781,0,0,1-.452.1H515.7a.716.716,0,0,1-.737-.523c-.071,0-.071-.095-.071-.166Z" transform="translate(-394.535 -1554.367)" fill="#2e87aa"/>
      <path id="Path_13" data-name="Path 13" d="M577.972,1576.157a6.425,6.425,0,0,0,2.329.428v3.184a3.654,3.654,0,0,1-2.329-.855v1.117h-.024c0,1.236-.713,2.756-2.162,4.515a8.04,8.04,0,0,1-5.632,2.234h-.594a.694.694,0,0,1-.713-.5c-.024-.071-.024-.167-.048-.238v-1.711a.766.766,0,0,1,.19-.5,1.076,1.076,0,0,1,.452-.262h.166a5.4,5.4,0,0,0,3.755-1.307,4.049,4.049,0,0,0,1.378-2.376h-.047v-10.075a.766.766,0,0,1,.19-.5.648.648,0,0,1,.5-.214h1.854a.659.659,0,0,1,.546.309.8.8,0,0,1,.119.4Z" transform="translate(-436.847 -1554.368)" fill="#2e87aa"/>
      <path id="Path_14" data-name="Path 14" d="M619.182,1554.529a2.471,2.471,0,0,0,1.83-.547,2.806,2.806,0,0,0,.5-1.9v-4.3a.767.767,0,0,1,.19-.5.647.647,0,0,1,.5-.214h1.877a.658.658,0,0,1,.547.309.8.8,0,0,1,.119.4v4.325c0,1.64.523,2.448,1.568,2.448v3.184a4.4,4.4,0,0,1-3.137-1.235,5.16,5.16,0,0,1-3.089,1.235H615.76a.7.7,0,0,1-.713-.5c-.024-.071-.024-.167-.047-.238v-1.758a.71.71,0,0,1,.689-.713h3.493Zm-2.97-11.762v-1.806a.736.736,0,0,1,.214-.523.681.681,0,0,1,.523-.238h7.2a.742.742,0,0,1,.594.309.8.8,0,0,1,.119.4v1.854a.678.678,0,0,1-.333.594.823.823,0,0,1-.475.095H617a.716.716,0,0,1-.737-.523c-.024,0-.047-.071-.047-.167Z" transform="translate(-472.068 -1532.335)" fill="#2e87aa"/>
      <path id="Path_15" data-name="Path 15" d="M684.872,1537.89q0,1.925,2.5,1.925V1543h.024l-1.164-.19a3.058,3.058,0,0,1-2.067-1.569,4.329,4.329,0,0,1-3.636,2.067,6.217,6.217,0,0,1-4.42-2.162,5.882,5.882,0,0,1-4.539,2.162,5.219,5.219,0,0,1-4.325-2.258,5.857,5.857,0,0,1-3.588,1.759,15.722,15.722,0,0,1-2.353.19v-3.208h1.164a4.241,4.241,0,0,0,2.21-.4,2.752,2.752,0,0,0,.9-2.353v-3.992a.767.767,0,0,1,.19-.5.648.648,0,0,1,.5-.214H668a.689.689,0,0,1,.547.238.625.625,0,0,1,.166.356v4.776a2.311,2.311,0,0,0,.832,1.854,2.71,2.71,0,0,0,1.925.689c1.449,0,2.186-.666,2.186-2v-5.228a.766.766,0,0,1,.19-.5.648.648,0,0,1,.5-.214h1.782a.659.659,0,0,1,.547.308.677.677,0,0,1,.1.285h.024v4.753a2.364,2.364,0,0,0,.808,1.854,2.922,2.922,0,0,0,1.949.737q2.21,0,2.21-2V1532.9a.721.721,0,0,1,.19-.38.647.647,0,0,1,.5-.214h1.806a.659.659,0,0,1,.547.308,1.207,1.207,0,0,1,.119.309Zm-14.162-9.838v-1.806a.735.735,0,0,1,.214-.522.679.679,0,0,1,.523-.238h7.2a.742.742,0,0,1,.594.309.8.8,0,0,1,.119.4v1.853a.732.732,0,0,1-.333.594.783.783,0,0,1-.452.1h-7.057a.716.716,0,0,1-.737-.523C670.734,1528.219,670.71,1528.148,670.71,1528.052Zm2.661-4.586v-1.806a.738.738,0,0,1,.214-.523.681.681,0,0,1,.523-.238h1.877a.742.742,0,0,1,.594.309.8.8,0,0,1,.119.4v1.877a.747.747,0,0,1-.333.617.779.779,0,0,1-.452.1h-1.759a.716.716,0,0,1-.737-.523A.567.567,0,0,1,673.371,1523.467Z" transform="translate(-507.366 -1517.621)" fill="#2e87aa"/>
      <path id="Path_16" data-name="Path 16" d="M781.262,1575.428a5.572,5.572,0,0,1-4.158,1.5,8.3,8.3,0,0,1-3.612-.76,10.74,10.74,0,0,1-3.992.76v-3.184a2.574,2.574,0,0,0,1.663-.452,3.039,3.039,0,0,1-.024-.451v-3.184a4.166,4.166,0,0,1,.451-2,5.376,5.376,0,0,1,.57-.855,4.052,4.052,0,0,1,.57-.523,4.231,4.231,0,0,1,2.471-.879h3.351a4,4,0,0,1,2.4.808,7.945,7.945,0,0,1,.665.594,4.043,4.043,0,0,1,1.022,2.709v3.279A4.068,4.068,0,0,1,781.262,1575.428Zm-4.3-7.153a3.814,3.814,0,1,0,2.685,1.117,3.627,3.627,0,0,0-2.685-1.117Z" transform="translate(-589.855 -1551.546)" fill="#2e87aa"/>
      <path id="Path_17" data-name="Path 17" d="M872.206,1565.432a5.3,5.3,0,0,1-1.9,4.158,6.372,6.372,0,0,1-4.349,1.616,5.612,5.612,0,0,1-4.277-1.782,6.207,6.207,0,0,1-1.687-4.42c0-1.83.9-3.636,2.709-5.441l2.162-2.162,5.846,4.087A5.4,5.4,0,0,1,872.206,1565.432Zm-6.654-2.542a3.813,3.813,0,1,0,2.685,1.117A3.625,3.625,0,0,0,865.552,1562.889Z" transform="translate(-658.842 -1545.448)" fill="#2e87aa"/>
      <path id="Path_18" data-name="Path 18" d="M924.56,1528.75h0l.024,13.26c0,1.45.238,2.353.713,2.685a4.137,4.137,0,0,0,2.186.4v3.184a8.367,8.367,0,0,1-4.016-.808,4.235,4.235,0,0,1-2.067-4.063V1528.75h.024v-.237a.711.711,0,0,1,.689-.713h1.782a.659.659,0,0,1,.547.309.8.8,0,0,1,.119.4Z" transform="translate(-705.66 -1522.881)" fill="#2e87aa"/>
      <path id="Path_19" data-name="Path 19" d="M945.569,1514.4l11.739-4.254.523,3.184-8.531,3.184,8.911,9.766a32.852,32.852,0,0,0,2.8,2.662,2.922,2.922,0,0,0,1.616.333v3.184a5.583,5.583,0,0,1-5.061-2.566,4,4,0,0,1-4.04,2.566H944.5v-3.184h9.1q1.64,0,1.64-1.212a2.14,2.14,0,0,0-.737-1.378l-8.364-8.721a1.354,1.354,0,0,1-.665-.261.56.56,0,0,1-.167-.166,1.834,1.834,0,0,1-.19-.261,1.49,1.49,0,0,1-.143-.642V1515.2a.842.842,0,0,1,.238-.618.427.427,0,0,1,.166-.119A.519.519,0,0,1,945.569,1514.4Zm10.954-6.06-11.168,4.04-.143-1.236,11.24-4.04Z" transform="translate(-723.271 -1507.1)" fill="#2e87aa"/>
      <path id="Path_20" data-name="Path 20" d="M1042.472,1537.89a7.5,7.5,0,0,1-.713,3.375,4.329,4.329,0,0,1-3.635,2.067,6.219,6.219,0,0,1-4.42-2.162,5.884,5.884,0,0,1-4.539,2.162,5.219,5.219,0,0,1-4.325-2.258,5.853,5.853,0,0,1-3.588,1.758,15.659,15.659,0,0,1-2.353.19v-3.184h1.164a4.236,4.236,0,0,0,2.21-.4,2.752,2.752,0,0,0,.9-2.353l-.024-3.992a.767.767,0,0,1,.19-.5.647.647,0,0,1,.5-.214h1.735a.675.675,0,0,1,.546.261.881.881,0,0,1,.167.333v4.776a2.31,2.31,0,0,0,.832,1.854,2.71,2.71,0,0,0,1.925.689c1.449,0,2.186-.666,2.186-2v-5.228a.767.767,0,0,1,.19-.5.648.648,0,0,1,.5-.214h1.782a.658.658,0,0,1,.546.309.673.673,0,0,1,.1.285h.024v4.752a2.365,2.365,0,0,0,.808,1.854,2.923,2.923,0,0,0,1.948.737q2.21,0,2.21-2v-5.347a.722.722,0,0,1,.19-.38.648.648,0,0,1,.5-.214h1.806a.659.659,0,0,1,.547.309,1.2,1.2,0,0,1,.119.309Zm-14.258-9.838v-1.806a.736.736,0,0,1,.214-.522.68.68,0,0,1,.523-.238h7.2a.742.742,0,0,1,.594.309.8.8,0,0,1,.119.4v1.853a.677.677,0,0,1-.333.594.782.782,0,0,1-.451.1h-7.057a.716.716,0,0,1-.737-.523c-.048,0-.071-.071-.071-.167Zm2.662-4.586v-1.806a.738.738,0,0,1,.214-.523.681.681,0,0,1,.523-.238h1.877a.742.742,0,0,1,.594.309.8.8,0,0,1,.119.4v1.877a.747.747,0,0,1-.333.617.777.777,0,0,1-.451.1h-1.734a.715.715,0,0,1-.737-.523.329.329,0,0,1-.071-.214Z" transform="translate(-779.992 -1517.621)" fill="#2e87aa"/>
      <path id="Path_21" data-name="Path 21" d="M1136.36,1528.75h0l.024,13.26c0,1.45.238,2.353.713,2.685a4.193,4.193,0,0,0,2.186.4v3.184a8.367,8.367,0,0,1-4.016-.808,4.235,4.235,0,0,1-2.067-4.063V1528.75h.024v-.237a.711.711,0,0,1,.689-.713h1.782a.66.66,0,0,1,.547.309.8.8,0,0,1,.118.4Z" transform="translate(-867.131 -1522.881)" fill="#2e87aa"/>
      <path id="Path_22" data-name="Path 22" d="M1155.684,1579.769a.964.964,0,0,1-.451-.095.752.752,0,0,1-.333-.57v-1.83a.7.7,0,0,1,.665-.689h1a2.473,2.473,0,0,0,1.83-.546,2.809,2.809,0,0,0,.5-1.9v-4.325a.8.8,0,0,1,.119-.4.659.659,0,0,1,.547-.309h1.83a.684.684,0,0,1,.5.214.766.766,0,0,1,.19.5v.452h.024v4.3a5.558,5.558,0,0,1-1.236,3.612,4.178,4.178,0,0,1-3.351,1.592Zm1,6.25v-1.806a.738.738,0,0,1,.214-.523.681.681,0,0,1,.522-.237h1.877a.742.742,0,0,1,.594.309.8.8,0,0,1,.119.4v1.877a.733.733,0,0,1-.333.594.781.781,0,0,1-.452.095h-1.735a.716.716,0,0,1-.737-.523c-.048-.024-.072-.119-.072-.19Z" transform="translate(-883.675 -1554.367)" fill="#2e87aa"/>
    </g>
    <g id="Logo-2" data-name="Logo" transform="translate(-28.671 13.634)">
      <g id="charkhe" transform="translate(53.055 118.039)">
        <path id="Path_36" data-name="Path 36" d="M345.789,757.949a9.34,9.34,0,1,1-9.34,9.34,9.34,9.34,0,0,1,9.34-9.34m0-7.949a17.289,17.289,0,1,0,17.289,17.289A17.289,17.289,0,0,0,345.789,750Z" transform="translate(-328.5 -750)" fill="#10b5dd"/>
        <path id="Path_37" data-name="Path 37" d="M712.788,757.949a9.34,9.34,0,1,1-9.34,9.34,9.34,9.34,0,0,1,9.34-9.34m0-7.949a17.289,17.289,0,1,0,17.289,17.289A17.289,17.289,0,0,0,712.788,750Z" transform="translate(-622.57 -750)" fill="#10b5dd"/>
        <rect id="Rectangle_1" data-name="Rectangle 1" width="25" height="10" transform="translate(41.116 12.294)" fill="#10b5dd"/>
      </g>
      <path id="badaneh" d="M94.669,177.263,87.759,156H66.576a5.061,5.061,0,0,0-5.079,5.063,4.968,4.968,0,0,0,4.968,4.873H80.542l7.782,24.244H237.079l-3.988,12.42H92.5l12.519,38.75H220.555l-4.535,13.91H109.706l2.647,8.118a6.955,6.955,0,0,0,6.611,4.8h98.247a6.955,6.955,0,0,0,6.616-4.806l11.351-34.938h-123.9L107.1,215.516H239.35l12.321-38.249Z" transform="translate(-61.5 -156)" fill="#10b5dd"/>
      <g id="shadow_payen" data-name="shadow payen" transform="translate(-0.004)">
        <path id="Path_38" data-name="Path 38" d="M337.186,655.5H304l2.647,8.118a6.955,6.955,0,0,0,6.611,4.8h9.421A66.54,66.54,0,0,0,337.186,655.5Z" transform="translate(-255.81 -556.24)" fill="#66f1ff" opacity="0.5"/>
        <path id="Path_39" data-name="Path 39" d="M236.3,416.333l-4.173-12.917H283.24c.036-.89-.211-9.58-.729-12.917H217.53l12.519,38.75h46.806a65.779,65.779,0,0,0,4.59-12.917Z" transform="translate(-186.523 -343.9)" fill="#66f1ff" opacity="0.5"/>
        <path id="Path_40" data-name="Path 40" d="M87.759,156H66.576a5.061,5.061,0,0,0-5.079,5.063,4.968,4.968,0,0,0,4.968,4.873H80.542l7.782,24.244H154.3a65.812,65.812,0,0,0-6.383-12.917H94.669Z" transform="translate(-61.496 -156)" fill="#66f1ff" opacity="0.5"/>
      </g>
      <g id="shadow_bala" data-name="shadow bala" transform="translate(102.728 41.379)">
        <path id="Path_41" data-name="Path 41" d="M669.32,364.23l-1.675,5.22H613.631a46.223,46.223,0,0,0-9.811,12.917H673.9l3.708-11.512A46.375,46.375,0,0,0,669.32,364.23Z" transform="translate(-598.783 -364.23)" fill="#068d93" opacity="0.5"/>
        <path id="Path_42" data-name="Path 42" d="M638.064,555.439,649.419,520.5H579.171a46.459,46.459,0,0,0-.445,12.917H634.8l-4.535,13.91h-47.8a46.162,46.162,0,0,0,8.638,12.917h40.34A6.955,6.955,0,0,0,638.064,555.439Z" transform="translate(-578.47 -489.446)" fill="#068d93" opacity="0.5"/>
      </g>
    </g>
  </g>
</svg>
