<svg xmlns="http://www.w3.org/2000/svg" xmlns:xlink="http://www.w3.org/1999/xlink" width="570.127" height="218.68" viewBox="0 0 570.127 218.68"><defs><linearGradient id="a" y1="0.5" x2="1" y2="0.5" gradientUnits="objectBoundingBox"><stop offset="0" stop-color="#c9dae9"/><stop offset="1" stop-color="#cecce0"/></linearGradient><linearGradient id="b" y1="0.5" x2="1" y2="0.5" gradientUnits="objectBoundingBox"><stop offset="0" stop-color="#baebcf"/><stop offset="1" stop-color="#a3e2f2"/></linearGradient><linearGradient id="c" y1="0.5" x2="1" y2="0.5" gradientUnits="objectBoundingBox"><stop offset="0" stop-color="#d0f5aa"/><stop offset="1" stop-color="#baebce"/></linearGradient><linearGradient id="d" y1="0.5" x2="1" y2="0.5" gradientUnits="objectBoundingBox"><stop offset="0" stop-color="#00aedd"/><stop offset="0.5" stop-color="#2879c4"/><stop offset="1" stop-color="#5045ab"/></linearGradient><linearGradient id="e" y1="0.5" x2="1.001" y2="0.5" gradientUnits="objectBoundingBox"><stop offset="0" stop-color="#7de314"/><stop offset="1" stop-color="#00aedd"/></linearGradient></defs><g transform="translate(-0.005)"><g transform="translate(0.005)"><path d="M292.775,14.05H223.865L189.42,73.716l34.445,59.666h68.911L327.22,73.716Z" transform="translate(210.356 15.604)" fill="url(#a)"/><path d="M205.775,14.05H136.865L102.42,73.716l34.445,59.666h68.911L240.22,73.716Z" transform="translate(113.735 15.604)" fill="url(#b)"/><path d="M118.775,14.05H49.865L15.42,73.716l34.445,59.666h68.911L153.22,73.716Z" transform="translate(17.114 15.604)" fill="url(#c)"/><path d="M454.927,263.612H363.18a9.35,9.35,0,0,1-8.02-4.643l-29.844-51.709a9.308,9.308,0,1,1,16.1-9.308L368.6,245.017h80.983l40.5-70.156-40.544-70.156h-81L279.178,258.968a9.287,9.287,0,0,1-8.041,4.643H179.347a9.35,9.35,0,0,1-8.062-4.664L141.357,207.09a9.309,9.309,0,0,1,16.125-9.308L184.729,245h81L355.159,90.733A9.287,9.287,0,0,1,363.2,86.09h91.747a9.308,9.308,0,0,1,8.062,4.664L508.874,170.2a9.286,9.286,0,0,1,0,9.308l-45.884,79.464a9.35,9.35,0,0,1-8.062,4.643Z" transform="translate(60.003 -86.09)" fill="url(#d)"/><path d="M192.2,263.612H100.476a9.308,9.308,0,0,1-8.062-4.643L46.529,179.5a9.392,9.392,0,0,1,0-9.308L92.414,90.754a9.266,9.266,0,0,1,8.062-4.664H192.2a9.287,9.287,0,0,1,8.062,4.664l29.865,51.709A9.309,9.309,0,0,1,214,151.772l-27.163-47.066H105.879L65.335,174.84,105.879,245h81l89.4-154.263a9.308,9.308,0,0,1,8.041-4.643h91.705a9.308,9.308,0,0,1,8.062,4.664l29.928,51.857a9.308,9.308,0,0,1-16.1,9.308l-27.269-47.214H289.669l-89.4,154.263a9.35,9.35,0,0,1-8.062,4.643Z" transform="translate(-45.295 -86.09)" fill="url(#e)"/></g><g transform="translate(432.053 50.464)"><path d="M276.03,155.574h-.106a13.36,13.36,0,0,1-10.279-4.327c-5.572-6.332-4.812-17.391-4.664-19v-.507c.675-11.038,7.978-14.985,14.648-14.985h.718c6.712,0,14.1,4.01,14.669,15.26h0c0,.127,1.309,12.389-4.664,19a13.191,13.191,0,0,1-10.258,4.348Zm-10.975-22.668c-.274,3.145-.127,11.292,3.651,15.534a8.949,8.949,0,0,0,7.134,2.913,9.2,9.2,0,0,0,7.3-2.934c3.736-4.221,3.926-12.2,3.651-15.407h0v-.633c-.464-10.173-7.471-11.271-10.447-11.271h-.718c-2.976,0-9.983,1.1-10.447,11.355Z" transform="translate(-237.934 -102.492)" fill="#055777"/><path d="M283.282,161.522a37.986,37.986,0,0,1-28.508-12.889,2.111,2.111,0,0,1-.533-1.4v-.485a2.111,2.111,0,0,1,1.456-2.005c12.347-3.968,16.1-8.653,17.243-11.1a2.111,2.111,0,0,1,2.744-1.034,18.34,18.34,0,0,0,7.007,1.414h.274l.3,2.111v-2.111a17.834,17.834,0,0,0,7.767-1.773,2.111,2.111,0,0,1,2.807.886c1.541,2.892,5.783,8.231,17.054,11.714a2.054,2.054,0,0,1,1.266,2.807l-.232.549a1.942,1.942,0,0,1-.38.633,37.99,37.99,0,0,1-28.261,12.685Zm-23.427-13.677a33.769,33.769,0,0,0,46.771,0c-8.865-3.314-13.339-7.83-15.534-11.059a22.6,22.6,0,0,1-7.809,1.52h-.654a23.575,23.575,0,0,1-6.859-1.1C273.636,140.417,269.141,144.406,259.854,147.846Z" transform="translate(-245.291 -85.541)" fill="#055777"/><path d="M281.411,142.951a2.119,2.119,0,0,1-1.5-3.609,3.325,3.325,0,0,1,.317-.253,1.181,1.181,0,0,1,.359-.19,1.477,1.477,0,0,1,.4-.127,2.122,2.122,0,0,1,2.533,2.068,2.587,2.587,0,0,1,0,.4l-.127.4-.19.359a2.111,2.111,0,0,1-1.773.95Z" transform="translate(-217.46 -78.092)" fill="#055777"/><path d="M317.9,167.936a2.111,2.111,0,0,1-.76-2.891h0a2.111,2.111,0,0,1,2.892-.76h0a2.111,2.111,0,0,1,.76,2.892h0a2.111,2.111,0,0,1-1.836,1.055h0A2.111,2.111,0,0,1,317.9,167.936Zm-63.191-1.625a2.111,2.111,0,0,1,.823-2.849h0a2.111,2.111,0,0,1,2.87.823h0a2.111,2.111,0,0,1-.823,2.87h0a2.259,2.259,0,0,1-1.013.253h0A2.111,2.111,0,0,1,254.707,166.31Zm67.053-5.783a2.111,2.111,0,0,1-1.393-2.638h0a2.111,2.111,0,0,1,2.638-1.393h0a2.111,2.111,0,0,1,1.393,2.638h0a2.11,2.11,0,0,1-2.005,1.477h0A2.111,2.111,0,0,1,321.76,160.527Zm-70.3-2.364a2.111,2.111,0,0,1,1.477-2.6h0a2.11,2.11,0,0,1,2.6,1.477h0a2.111,2.111,0,0,1-1.456,2.6h0a2.868,2.868,0,0,1-.57,0h0a2.111,2.111,0,0,1-2.132-1.477Zm72.288-5.72a2.11,2.11,0,0,1-1.963-2.237h0a2.111,2.111,0,0,1,2.237-1.963h0a2.111,2.111,0,0,1,1.963,2.237h0a2.111,2.111,0,0,1-2.111,1.984h-.148ZM250,149.489a2.111,2.111,0,0,1,2.111-2.111h0a2.111,2.111,0,0,1,2.111,2.111h0a2.111,2.111,0,0,1-2.111,2.111h0A2.111,2.111,0,0,1,250,149.489Zm71.275-7.092a2.111,2.111,0,0,1,1.731-2.427h0a2.111,2.111,0,0,1,2.427,1.731h0a2.111,2.111,0,0,1-1.731,2.427h-.359A2.111,2.111,0,0,1,321.3,142.4Zm-68.932.8a2.111,2.111,0,0,1-1.667-2.469h0a2.111,2.111,0,0,1,2.469-1.688h0a2.111,2.111,0,0,1,1.667,2.49h0a2.111,2.111,0,0,1-2.111,1.71h0Zm66.758-8.316a2.111,2.111,0,0,1,1.119-2.765h0a2.11,2.11,0,0,1,2.765,1.14h0a2.11,2.11,0,0,1-1.119,2.765h0a2.259,2.259,0,0,1-.823.148h0a2.111,2.111,0,0,1-1.921-1.287Zm-64.711.253a2.111,2.111,0,0,1-1.055-2.786h0a2.111,2.111,0,0,1,2.807-1.034h0a2.111,2.111,0,0,1,1.034,2.786h0a2.111,2.111,0,0,1-1.921,1.245h0a2.11,2.11,0,0,1-.844-.211Zm60.869-7.049h0a2.11,2.11,0,0,1,.464-2.955h0a2.111,2.111,0,0,1,2.934.464h0a2.11,2.11,0,0,1-.464,2.955h0a2.11,2.11,0,0,1-1.224.4h0a2.11,2.11,0,0,1-1.688-.865Zm-56.986-.317a2.111,2.111,0,0,1-.38-2.955h0a2.111,2.111,0,0,1,2.955-.38h0a2.111,2.111,0,0,1,.38,2.955h0a2.111,2.111,0,0,1-1.667.823h0a2.111,2.111,0,0,1-1.287-.443Zm51.688-5.424a2.111,2.111,0,0,1-.211-2.976h0a2.111,2.111,0,0,1,2.976-.232h0a2.111,2.111,0,0,1,.211,2.976h0a2.111,2.111,0,0,1-1.6.739h0a2.111,2.111,0,0,1-1.372-.507Zm-46.243-.865a2.111,2.111,0,0,1,.3-2.976h0a2.111,2.111,0,0,1,2.976.317h0a2.111,2.111,0,0,1-.3,2.955h0a2.111,2.111,0,0,1-1.351.485h0a2.111,2.111,0,0,1-1.625-.781Zm39.763-3.5a2.111,2.111,0,0,1-.887-2.849h0a2.111,2.111,0,0,1,2.828-.886h0a2.111,2.111,0,0,1,.908,2.828h0a2.111,2.111,0,0,1-1.878,1.14h0a2.11,2.11,0,0,1-.971-.232Zm-33.031-1.372a2.111,2.111,0,0,1,.992-2.828h0a2.111,2.111,0,0,1,2.807.992h0a2.111,2.111,0,0,1-.971,2.807h0a2.111,2.111,0,0,1-.929.211h0a2.111,2.111,0,0,1-1.9-1.182Zm25.728-1.393a2.111,2.111,0,0,1-1.541-2.554h0a2.111,2.111,0,0,1,2.554-1.541h0a2.111,2.111,0,0,1,1.541,2.575h0a2.111,2.111,0,0,1-2.111,1.583h0a2.109,2.109,0,0,1-.443-.063Zm-18.045-1.794a2.111,2.111,0,0,1,1.6-2.512h0a2.111,2.111,0,0,1,2.533,1.6h0a2.111,2.111,0,0,1-1.625,2.512h-.464a2.111,2.111,0,0,1-2.047-1.6Zm10.3.8a2.111,2.111,0,0,1-2.111-2.111h0A2.111,2.111,0,0,1,288.434,110h0a2.111,2.111,0,0,1,2.111,2.111h0a2.111,2.111,0,0,1-2.111,2.111Z" transform="translate(-250 -110)" fill="#055777"/><path d="M256.531,142.662a2.111,2.111,0,1,1,1.5-3.609,2.554,2.554,0,0,1,.464.675,2.259,2.259,0,0,1,.148.823A2.111,2.111,0,0,1,256.531,142.662Z" transform="translate(-245.091 -78.416)" fill="#055777"/></g><g transform="translate(246.321 50.464)"><path d="M176.514,144.324A7.324,7.324,0,0,1,169.19,137v-6.986l6.733-10.764h12.326l-4.411,11.756V137A7.324,7.324,0,0,1,176.514,144.324Zm-3.1-13.086V137a3.1,3.1,0,1,0,6.205,0v-6.754l2.554-6.775h-3.9Z" transform="translate(-154.015 -99.727)" fill="#055777"/><path d="M181.454,144.324A7.324,7.324,0,0,1,174.13,137v-6.754l4.221-11H188.9V137a7.324,7.324,0,0,1-7.45,7.324Zm-3.1-13.318V137a3.1,3.1,0,1,0,6.205,0V123.471h-3.377Z" transform="translate(-148.529 -99.727)" fill="#055777"/><path d="M193.665,144.324A7.324,7.324,0,0,1,186.341,137v-5.994L181.93,119.25h12.326l6.733,10.764V137A7.324,7.324,0,0,1,193.665,144.324Zm-5.656-20.853,2.554,6.775V137a3.1,3.1,0,1,0,6.205,0v-5.762l-4.854-7.767Z" transform="translate(-139.866 -99.727)" fill="#055777"/><path d="M186.394,144.324A7.324,7.324,0,0,1,179.07,137V119.25h10.553l4.221,11V137a7.324,7.324,0,0,1-7.45,7.324Zm-3.1-20.853V137a3.166,3.166,0,1,0,6.332,0v-5.994l-2.828-7.535Z" transform="translate(-143.042 -99.727)" fill="#055777"/><path d="M190.739,164.88h-2.111V150.106H182.3l.3,14.014-2.786-.823a38.6,38.6,0,0,1-8.442-3.736l-1.034-.612V131.111h4.221v25.327a32.043,32.043,0,0,0,3.757,1.773l-.232-12.326H192.85v14.774a33.77,33.77,0,0,0,15.26-4.749V129h4.221v29.168l-.971.633a37.99,37.99,0,0,1-20.62,6.078Z" transform="translate(-152.749 -88.899)" fill="#055777"/><path d="M193.421,142.952a2.111,2.111,0,1,1,1.477-3.609,2.238,2.238,0,0,1,.464.7,2.109,2.109,0,0,1-1.942,2.913Z" transform="translate(-129.449 -78.094)" fill="#055777"/><path d="M229.9,167.936a2.111,2.111,0,0,1-.76-2.891h0a2.111,2.111,0,0,1,2.892-.76h0a2.111,2.111,0,0,1,.76,2.892h0a2.111,2.111,0,0,1-1.836,1.055h0a2.111,2.111,0,0,1-1.055-.3Zm-63.191-1.625a2.111,2.111,0,0,1,.823-2.87h0a2.111,2.111,0,0,1,2.87.844h0a2.111,2.111,0,0,1-.823,2.87h0a2.259,2.259,0,0,1-1.034.253h0A2.11,2.11,0,0,1,166.707,166.31Zm67.053-5.783a2.111,2.111,0,0,1-1.393-2.638h0a2.111,2.111,0,0,1,2.638-1.393h0a2.111,2.111,0,0,1,1.393,2.638h0a2.111,2.111,0,0,1-2.111,1.477h0a2.114,2.114,0,0,1-.528-.084Zm-70.3-2.364h0a2.111,2.111,0,0,1,1.456-2.6h0a2.111,2.111,0,0,1,2.6,1.477h0a2.111,2.111,0,0,1-1.456,2.6h0a2.657,2.657,0,0,1-.57,0h0a2.111,2.111,0,0,1-2.111-1.477Zm72.288-5.72a2.111,2.111,0,0,1-1.963-2.237h0a2.111,2.111,0,0,1,2.237-1.963h0a2.111,2.111,0,0,1,1.963,2.237h0a2.111,2.111,0,0,1-2.111,1.963ZM162,149.489h0a2.111,2.111,0,0,1,2.111-2.111h0a2.111,2.111,0,0,1,2.111,2.111h0a2.111,2.111,0,0,1-2.111,2.111h0A2.111,2.111,0,0,1,162,149.489Zm71.275-7.092a2.111,2.111,0,0,1,1.731-2.427h0a2.111,2.111,0,0,1,2.427,1.731h0a2.111,2.111,0,0,1-1.731,2.427h-.338A2.111,2.111,0,0,1,233.3,142.4Zm-68.932.8a2.111,2.111,0,0,1-1.667-2.469h0a2.111,2.111,0,0,1,2.469-1.667h0a2.111,2.111,0,0,1,1.667,2.469h0a2.111,2.111,0,0,1-2.111,1.71h0Zm66.758-8.316h0a2.111,2.111,0,0,1,1.119-2.765h0a2.111,2.111,0,0,1,2.765,1.14h0a2.111,2.111,0,0,1-1.119,2.765h0a2.3,2.3,0,0,1-.823.169h0a2.111,2.111,0,0,1-1.921-1.309Zm-64.711.253a2.111,2.111,0,0,1-1.055-2.786h0a2.111,2.111,0,0,1,2.807-1.034h0A2.111,2.111,0,0,1,169.2,134.1h0a2.111,2.111,0,0,1-1.942,1.245h0a2.11,2.11,0,0,1-.844-.211Zm60.869-7.049h0a2.111,2.111,0,0,1,.464-2.955h0a2.111,2.111,0,0,1,2.934.464h0a2.111,2.111,0,0,1-.464,2.955h0a2.111,2.111,0,0,1-1.224.4h0a2.111,2.111,0,0,1-1.689-.865Zm-56.986-.317a2.111,2.111,0,0,1-.38-2.955h0a2.111,2.111,0,0,1,2.955-.38h0a2.111,2.111,0,0,1,.38,2.955h0a2.111,2.111,0,0,1-1.667.823h0a2.111,2.111,0,0,1-1.287-.443Zm51.688-5.424a2.111,2.111,0,0,1-.211-2.976h0a2.111,2.111,0,0,1,2.955-.232h0a2.111,2.111,0,0,1,.232,2.976h0a2.11,2.11,0,0,1-1.6.739h0a2.111,2.111,0,0,1-1.372-.507Zm-46.243-.865a2.111,2.111,0,0,1,.3-2.976h0a2.111,2.111,0,0,1,2.976.317h0a2.111,2.111,0,0,1-.3,2.955h0a2.111,2.111,0,0,1-1.33.464h0A2.111,2.111,0,0,1,175.719,121.482Zm39.763-3.5a2.111,2.111,0,0,1-.886-2.849h0a2.111,2.111,0,0,1,2.828-.886h0a2.111,2.111,0,0,1,.908,2.828h0a2.111,2.111,0,0,1-1.878,1.14h0A2.111,2.111,0,0,1,215.482,117.978Zm-33.031-1.372a2.111,2.111,0,0,1,.992-2.828h0a2.111,2.111,0,0,1,2.807.992h0a2.111,2.111,0,0,1-.971,2.807h0a2.111,2.111,0,0,1-.929.211h0A2.111,2.111,0,0,1,182.452,116.606Zm25.728-1.393a2.111,2.111,0,0,1-1.541-2.554h0a2.111,2.111,0,0,1,2.575-1.541h0a2.111,2.111,0,0,1,1.541,2.554h0a2.111,2.111,0,0,1-2.111,1.6h0a2.111,2.111,0,0,1-.464-.063Zm-18.046-1.794a2.111,2.111,0,0,1,1.6-2.512h0a2.111,2.111,0,0,1,2.533,1.6h0a2.111,2.111,0,0,1-1.6,2.512H192.2a2.111,2.111,0,0,1-2.068-1.6Zm10.3.8a2.111,2.111,0,0,1-2.111-2.111h0A2.111,2.111,0,0,1,200.434,110h0a2.111,2.111,0,0,1,2.111,2.111h0a2.111,2.111,0,0,1-2.111,2.111Z" transform="translate(-162 -110)" fill="#055777"/><path d="M168.512,142.667a2.093,2.093,0,0,1-1.752-.95,1.183,1.183,0,0,1-.19-.359,1.267,1.267,0,0,1-.127-.4,2.591,2.591,0,0,1,0-.4,2.87,2.87,0,0,1,0-.422,2.281,2.281,0,0,1,.317-.76l.253-.317a2.511,2.511,0,0,1,.7-.464,2.111,2.111,0,0,1,2.3,3.44,1.752,1.752,0,0,1-.7.464,2.111,2.111,0,0,1-.8.169Z" transform="translate(-157.073 -78.42)" fill="#055777"/></g><g transform="translate(63.037 50.464)"><path d="M108.634,134.572H97.3a2.111,2.111,0,0,1-2.111-2.111V121.106a2.111,2.111,0,0,1,3.588-1.5l11.355,11.355a2.112,2.112,0,0,1-1.5,3.609Zm-9.223-4.221h4.221l-4.221-4.221Z" transform="translate(-52.915 -100)" fill="#055777"/><path d="M110.491,131.731H89.681a2.111,2.111,0,0,1,0-4.221h20.81a2.111,2.111,0,0,1,0,4.221Z" transform="translate(-61.378 -90.554)" fill="#055777"/><path d="M110.491,136.221H89.681a2.111,2.111,0,1,1,0-4.221h20.81a2.111,2.111,0,1,1,0,4.221Z" transform="translate(-61.378 -85.567)" fill="#055777"/><path d="M110.491,140.691H89.681a2.111,2.111,0,0,1,0-4.221h20.81a2.111,2.111,0,0,1,0,4.221Z" transform="translate(-61.378 -80.603)" fill="#055777"/><path d="M102.5,175.986a37.758,37.758,0,0,1-16.885-3.947,2.111,2.111,0,0,1-1.161-1.9V121.111A2.111,2.111,0,0,1,86.561,119h22.668a2.111,2.111,0,0,1,1.477.612l11.355,11.355a2.111,2.111,0,0,1,.612,1.5V169a2.11,2.11,0,0,1-1.034,1.815,37.99,37.99,0,0,1-19.143,5.171ZM88.65,168.81a33.77,33.77,0,0,0,29.8-1.055V133.331l-10.11-10.11H88.65Z" transform="translate(-64.843 -100.005)" fill="#055777"/><path d="M106.952,142.438h-.4l-.4-.127-.359-.19-.338-.274-.253-.317a1.183,1.183,0,0,1-.19-.359,1.478,1.478,0,0,1-.127-.4,2.873,2.873,0,0,1,0-.422,2.111,2.111,0,0,1,.612-1.477l.338-.274.359-.19.4-.127a2.117,2.117,0,0,1,2.512,2.068,2.868,2.868,0,0,1,0,.422,1.478,1.478,0,0,1-.127.4,1.181,1.181,0,0,1-.19.359,1.858,1.858,0,0,1-.253.317l-.317.274-.38.19-.38.127Z" transform="translate(-42.157 -78.635)" fill="#055777"/><path d="M80.5,167.6a2.111,2.111,0,0,1,.7-2.892h0a2.111,2.111,0,0,1,2.913.718h0a2.111,2.111,0,0,1-.718,2.892h0a2.11,2.11,0,0,1-1.1.317h0A2.111,2.111,0,0,1,80.5,167.6Zm63.191-.865a2.111,2.111,0,0,1-.865-2.849h0a2.111,2.111,0,0,1,2.87-.865h0a2.111,2.111,0,0,1,.865,2.849h0a2.111,2.111,0,0,1-1.878,1.119h0a2.111,2.111,0,0,1-.992-.253ZM76.933,159.6h0a2.111,2.111,0,0,1,1.372-2.659h0a2.111,2.111,0,0,1,2.659,1.372h0a2.111,2.111,0,0,1-1.372,2.659h0a2.363,2.363,0,0,1-.654,0h0A2.111,2.111,0,0,1,76.933,159.6Zm70.346-.4a2.11,2.11,0,0,1-1.5-2.6h0a2.111,2.111,0,0,1,2.575-1.5h0a2.111,2.111,0,0,1,1.5,2.575h0a2.111,2.111,0,0,1-2.111,1.583h0a2.258,2.258,0,0,1-.549-.063Zm-72.034-8.231a2.111,2.111,0,0,1,1.942-2.258h0a2.111,2.111,0,0,1,2.258,1.942h0a2.111,2.111,0,0,1-1.942,2.258h-.148a2.111,2.111,0,0,1-2.195-1.942Zm73.681,0a2.111,2.111,0,0,1-2.111-2.111h0a2.111,2.111,0,0,1,2.111-2.111h0a2.111,2.111,0,0,1,2.111,2.111h0a2.111,2.111,0,0,1-2.111,2.111Zm-71.591-6.332a2.111,2.111,0,0,1-1.773-2.406h0a2.111,2.111,0,0,1,2.406-1.773h0a2.111,2.111,0,0,1,1.773,2.406h0a2.111,2.111,0,0,1-2.111,1.794h-.317Zm68.847-3.5h0a2.111,2.111,0,0,1,1.625-2.491h0a2.111,2.111,0,0,1,2.512,1.625h0a2.111,2.111,0,0,1-1.646,2.49h-.422a2.111,2.111,0,0,1-2.153-1.667Zm-67.138-4.664a2.111,2.111,0,0,1-1.161-2.765h0a2.111,2.111,0,0,1,2.744-1.161h0a2.111,2.111,0,0,1,1.161,2.765h0a2.111,2.111,0,0,1-1.963,1.309h0A2.111,2.111,0,0,1,79.043,136.467Zm64.647-2.786a2.111,2.111,0,0,1,1.013-2.807h0a2.111,2.111,0,0,1,2.807,1.013h0a2.111,2.111,0,0,1-1.013,2.807h0a2.238,2.238,0,0,1-.886.19h0a2.111,2.111,0,0,1-1.984-1.2ZM82.547,129a2.111,2.111,0,0,1-.507-2.955h0a2.111,2.111,0,0,1,2.934-.485h0a2.111,2.111,0,0,1,.507,2.934h0a2.111,2.111,0,0,1-1.731.886h0A2.111,2.111,0,0,1,82.547,129Zm56.986-1.921a2.111,2.111,0,0,1,.338-2.976h0a2.111,2.111,0,0,1,2.976.359h0a2.111,2.111,0,0,1-.338,2.955h0a2.111,2.111,0,0,1-1.309.464h0a2.111,2.111,0,0,1-1.688-.844Zm-51.794-4.622a2.111,2.111,0,0,1,.19-2.976h0a2.111,2.111,0,0,1,2.976.19h0a2.111,2.111,0,0,1-.19,2.976h0a2.111,2.111,0,0,1-1.393.528h0A2.111,2.111,0,0,1,87.739,122.452Zm46.243-.95a2.111,2.111,0,0,1-.338-2.976h0a2.111,2.111,0,0,1,2.955-.338h0a2.111,2.111,0,0,1,.359,2.976h0a2.11,2.11,0,0,1-1.667.8h0a2.111,2.111,0,0,1-1.372-.464Zm-39.7-4.221a2.111,2.111,0,0,1,.865-2.87h0a2.111,2.111,0,0,1,2.849.865h0a2.111,2.111,0,0,1-.865,2.87h0a2.11,2.11,0,0,1-.992.253h0a2.111,2.111,0,0,1-1.857-1.076Zm33.052,0h0a2.111,2.111,0,0,1-1.013-2.807h0a2.111,2.111,0,0,1,2.807-1.013h0a2.111,2.111,0,0,1,1.013,2.807h0a2.111,2.111,0,0,1-1.9,1.224h0a2.364,2.364,0,0,1-.908-.106Zm-25.5-3.461a2.111,2.111,0,0,1,1.5-2.575h0a2.111,2.111,0,0,1,2.575,1.5h0a2.111,2.111,0,0,1-1.5,2.575h0a1.646,1.646,0,0,1-.549,0h0A2.111,2.111,0,0,1,101.838,113.82Zm18.088,1.1a2.111,2.111,0,0,1-1.625-2.49h0a2.111,2.111,0,0,1,2.49-1.646h0a2.111,2.111,0,0,1,1.625,2.49h0a2.111,2.111,0,0,1-2.111,1.688h0Zm-9.941-2.807A2.111,2.111,0,0,1,112.1,110h0a2.111,2.111,0,0,1,2.111,2.111h0a2.111,2.111,0,0,1-2.111,2.111h0A2.111,2.111,0,0,1,109.985,112.111Z" transform="translate(-75.16 -110)" fill="#055777"/><path d="M82.12,143.138a2.1,2.1,0,1,1,1.456-3.609,2.512,2.512,0,0,1,.464.7,2.258,2.258,0,0,1,0,1.6,2.512,2.512,0,0,1-.464.7,2.2,2.2,0,0,1-1.456.612Z" transform="translate(-69.794 -77.879)" fill="#055777"/></g><g transform="translate(48.826 198.585)"><path d="M259.928,194.215a6.1,6.1,0,0,1-1.5,4.221,5.276,5.276,0,0,1-4.052,1.71h-3.4a5.128,5.128,0,0,1-3.883-1.773,5.635,5.635,0,0,1-1.625-3.968v-4.643h2.237v4.812a2.828,2.828,0,0,0,1.161,2.322,3.8,3.8,0,0,0,2.49.886h2.87a3.609,3.609,0,0,0,2.385-.908,2.976,2.976,0,0,0,1.1-2.3V180.18h2.111Z" transform="translate(128.196 -180.18)" fill="#5045ab"/><path d="M262.079,191.9a4.981,4.981,0,0,1-1.688,3.778,5.467,5.467,0,0,1-3.9,1.562h-2.891l-.274-2.111h2.807a3.8,3.8,0,0,0,2.617-.908,3.314,3.314,0,0,0,1.1-2.49,8.442,8.442,0,0,1-4.031-.739,3.8,3.8,0,0,1-1.688-3.567,4.939,4.939,0,0,1,1.33-3.926,4.221,4.221,0,0,1,2.723-.7,3.292,3.292,0,0,1,3.377,2.111,12.345,12.345,0,0,1,.528,4.221Zm-2.237-2.512V187.1c0-1.456-.57-2.111-1.731-2.111a1.435,1.435,0,0,0-1.435.718,4.22,4.22,0,0,0-.274,1.731,1.71,1.71,0,0,0,1.14,1.815,7.873,7.873,0,0,0,2.3.127Z" transform="translate(136.914 -177.29)" fill="#5045ab"/><path d="M261.431,194.508H259.32V180.24h2.111Z" transform="translate(143.578 -180.113)" fill="#5045ab"/><path d="M277.238,192.686a4.411,4.411,0,0,1-2.111-.38,25.417,25.417,0,0,1-2.343-2.111,4.222,4.222,0,1,1-8.295-1.583,6.965,6.965,0,0,1,2.575-4.5l-.633-.718,1.5-1.52,6.669,7.092a10,10,0,0,0,1.119,1.076,3.5,3.5,0,0,0,1.52.338Zm-6.332-3.862a1.688,1.688,0,0,0-.422-1.224l-1.794-1.773a17.651,17.651,0,0,0-1.309,1.309,2.764,2.764,0,0,0-.654,1.688,1.794,1.794,0,0,0,.591,1.414,2.268,2.268,0,0,0,2.934-.021,1.71,1.71,0,0,0,.633-1.456Z" transform="translate(149.235 -178.292)" fill="#5045ab"/><path d="M278.354,194.563h-.675a5.129,5.129,0,0,1-3.229-.865,3.356,3.356,0,0,1-1.435.781,24.554,24.554,0,0,1-2.934,0v-2.237h1.583a1.52,1.52,0,0,0,1.414-.57,3.461,3.461,0,0,0,.232-1.6V180.19h2.237v10.321c0,.823.232,1.309.718,1.52a10.4,10.4,0,0,0,2.111.19Z" transform="translate(155.527 -180.169)" fill="#5045ab"/><path d="M286.383,187.324l-5.086,2.891a9.878,9.878,0,0,1-3.757,1.245c-.57,0-1.9.127-4.01.169v-2.237h1.794a11.187,11.187,0,0,0,4.538-.929l4.095-2.258a2.111,2.111,0,0,0-1.5-1.14c-.19,0-2.111-.106-5.783-.148l-.317-2.111h5.488a4.052,4.052,0,0,1,4.538,4.517Z" transform="translate(159.359 -177.299)" fill="#5045ab"/><path d="M291.279,190.576a2.681,2.681,0,0,1-2.385-1.055,7.661,7.661,0,0,1-1.372,4.643,5,5,0,0,1-4.221,2.111h-2.913l-.359-2.111h3.081a3.609,3.609,0,0,0,2.448-.886,3.039,3.039,0,0,0,1.076-2.364V183.78h2.237v3.208c0,1.013.8,1.52,2.406,1.562Z" transform="translate(166.578 -176.182)" fill="#5045ab"/><path d="M295.046,187.466a4.918,4.918,0,0,1-.95,3.124,3.4,3.4,0,0,1-2.891,1.351,3.926,3.926,0,0,1-2.512-.844,11.017,11.017,0,0,1-3.694.591v-2.216q1.9,0,2.216-.38a7.114,7.114,0,0,0,.127-1.71c0-3.06,1.414-4.6,4.01-4.6a3.356,3.356,0,0,1,2.891,1.5A5.593,5.593,0,0,1,295.046,187.466Zm-1.942-.127q0-2.406-1.9-2.406c-1.309,0-1.963.823-1.963,2.49s.654,2.3,1.963,2.3,1.9-.8,1.9-2.406Z" transform="translate(172.097 -177.293)" fill="#5045ab"/><path d="M170.235,187.97a3.5,3.5,0,0,1-1.119,2.7,4.221,4.221,0,0,1-2.828,1.013,3.63,3.63,0,0,1-2.807-1.182,4.1,4.1,0,0,1-1.055-2.892v-2.7h-.443a1.878,1.878,0,0,0-1.477.7,2.3,2.3,0,0,0-.591,1.541v10.131H157.8v-9.814a4.77,4.77,0,0,1,1.14-3.377,4.221,4.221,0,0,1,3.293-1.287h4.432a3.06,3.06,0,0,1,3.039,1.625,8.928,8.928,0,0,1,.528,3.546Zm-2.111-.485a3.673,3.673,0,0,0-.359-2.111,6.923,6.923,0,0,0-3.124-.443v3.081a1.224,1.224,0,0,0,.633,1.055,1.984,1.984,0,0,0,1.224.4c1.013-.021,1.562-.675,1.562-2.005Z" transform="translate(30.827 -177.291)" fill="#2879c4"/><path d="M173.249,191.9a4.96,4.96,0,0,1-1.667,3.778,5.509,5.509,0,0,1-3.926,1.562h-2.87l-.3-2.111H167.3a3.862,3.862,0,0,0,2.638-.908,3.4,3.4,0,0,0,1.1-2.49,8.442,8.442,0,0,1-4.052-.739,3.778,3.778,0,0,1-1.667-3.567,4.939,4.939,0,0,1,1.309-3.926,4.221,4.221,0,0,1,2.723-.7,3.335,3.335,0,0,1,3.4,2.111,13.022,13.022,0,0,1,.507,4.221Zm-2.111-2.512V187.1c0-1.456-.591-2.111-1.752-2.111a1.477,1.477,0,0,0-1.435.718,4.221,4.221,0,0,0-.253,1.731,1.731,1.731,0,0,0,1.119,1.815,8.062,8.062,0,0,0,2.216.127Z" transform="translate(38.261 -177.29)" fill="#2879c4"/><path d="M180.34,189.732a2.617,2.617,0,0,1-.992,2.111,3.461,3.461,0,0,1-2.279.76h-6.9l-.317-2.216h7.07c.823,0,1.224-.3,1.224-.886a1.1,1.1,0,0,0-.338-.8l-5-5.319,1.5-1.52,5.023,5.3a3.651,3.651,0,0,1,1.013,2.575Z" transform="translate(44.213 -178.314)" fill="#2879c4"/><path d="M190.789,192.686a4.517,4.517,0,0,1-2.111-.38,26.82,26.82,0,0,1-2.322-2.111,4.294,4.294,0,0,1-8.316-1.583,7.071,7.071,0,0,1,2.575-4.5L180,183.4l1.477-1.52,6.669,7.092a9.43,9.43,0,0,0,1.14,1.076,3.356,3.356,0,0,0,1.52.338Zm-6.332-3.862a1.688,1.688,0,0,0-.422-1.224l-1.794-1.773c-.7.654-1.119,1.1-1.309,1.309a2.892,2.892,0,0,0-.654,1.688,1.857,1.857,0,0,0,.591,1.414,2.3,2.3,0,0,0,2.955-.021,1.752,1.752,0,0,0,.591-1.456Z" transform="translate(53.308 -178.292)" fill="#2879c4"/><path d="M191.934,194.563h-.675a5.129,5.129,0,0,1-3.229-.865,3.356,3.356,0,0,1-1.435.781,24.294,24.294,0,0,1-2.934,0v-2.237h1.6a1.5,1.5,0,0,0,1.393-.57,3.4,3.4,0,0,0,.253-1.6V180.19h2.216v10.321c0,.823.232,1.309.718,1.52a10.4,10.4,0,0,0,2.111.19Z" transform="translate(59.55 -180.169)" fill="#2879c4"/><path d="M199.973,187.319l-5.108,2.891a9.877,9.877,0,0,1-3.757,1.245c-.57,0-1.9.127-3.989.169v-2.237h1.857a11.186,11.186,0,0,0,4.538-.929l4.116-2.258a2.111,2.111,0,0,0-1.52-1.14c-.19,0-2.111-.106-5.783-.148l-.317-2.111H195.5a4.073,4.073,0,0,1,4.474,4.517Z" transform="translate(63.393 -177.293)" fill="#2879c4"/><path d="M204.908,190.576a2.659,2.659,0,0,1-2.385-1.055,7.535,7.535,0,0,1-1.393,4.643,5,5,0,0,1-4.221,2.111h-2.87l-.359-2.111h3.06a3.609,3.609,0,0,0,2.448-.886,3.039,3.039,0,0,0,1.076-2.364V183.78H202.5v3.208c0,1.013.8,1.52,2.427,1.562Z" transform="translate(70.679 -176.182)" fill="#2879c4"/><path d="M208.692,187.488a4.918,4.918,0,0,1-.95,3.124,3.461,3.461,0,0,1-2.913,1.351,3.925,3.925,0,0,1-2.512-.844,11.017,11.017,0,0,1-3.778.549v-2.216q1.9,0,2.216-.38a7.743,7.743,0,0,0,.148-1.71c0-3.06,1.393-4.6,3.989-4.6a3.356,3.356,0,0,1,2.892,1.5A5.445,5.445,0,0,1,208.692,187.488Zm-1.942-.127c0-1.6-.633-2.406-1.921-2.406s-1.963.823-1.963,2.49.654,2.3,1.963,2.3,1.921-.8,1.921-2.406Z" transform="translate(76.076 -177.315)" fill="#2879c4"/><path d="M80.865,187.969a3.44,3.44,0,0,1-1.14,2.7,4.073,4.073,0,0,1-2.828,1.013,3.609,3.609,0,0,1-2.786-1.182,4.1,4.1,0,0,1-1.055-2.892v-2.7h-.464a1.857,1.857,0,0,0-1.456.7,2.111,2.111,0,0,0-.591,1.541v10.131H68.434v-9.814a4.854,4.854,0,0,1,1.119-3.377,4.221,4.221,0,0,1,3.292-1.287h4.517a3.1,3.1,0,0,1,3.039,1.625A9.308,9.308,0,0,1,80.865,187.969Zm-2.111-.485a3.672,3.672,0,0,0-.359-2.111,6.922,6.922,0,0,0-3.124-.443v3.081a1.245,1.245,0,0,0,.612,1.055,2.111,2.111,0,0,0,1.224.4q1.583-.021,1.583-2.005Z" transform="translate(-68.426 -177.289)" fill="#67a813"/><path d="M85.534,191.64H84.057a5.34,5.34,0,0,1-1.625,4.031,5.678,5.678,0,0,1-4.095,1.583h-2.87l-.317-2.111h2.807a3.863,3.863,0,0,0,2.638-.908,3.25,3.25,0,0,0,1.1-2.49,8.3,8.3,0,0,1-4.052-.76,3.757,3.757,0,0,1-1.688-3.546,4.875,4.875,0,0,1,1.351-3.926,4.1,4.1,0,0,1,2.638-.675,3.44,3.44,0,0,1,3.546,2.216,13.255,13.255,0,0,1,.57,4.474h1.477Zm-3.757-2.216v-2.111a2.807,2.807,0,0,0-.443-1.6,1.583,1.583,0,0,0-1.393-.76,1.456,1.456,0,0,0-1.435.718,4.221,4.221,0,0,0-.274,1.731,1.688,1.688,0,0,0,1.182,1.794,8.189,8.189,0,0,0,2.364.169Z" transform="translate(-60.959 -177.245)" fill="#67a813"/><path d="M97.377,187.025a4.348,4.348,0,0,1-.76,2.68,2.828,2.828,0,0,1-2.448,1.14,4.221,4.221,0,0,1-3-1.477,3.588,3.588,0,0,1-2.723,1.477,4.221,4.221,0,0,1-3.018-1.773,3.883,3.883,0,0,1-2.976,1.6H79.69V188.46h2.765c1.013,0,1.541-.549,1.541-1.667v-3.1h2.111v3.293a1.646,1.646,0,0,0,.57,1.287,1.921,1.921,0,0,0,1.372.528q1.52,0,1.52-1.393V183.69h2.111v3.293a1.667,1.667,0,0,0,.57,1.287,1.963,1.963,0,0,0,1.351.528c1.034,0,1.562-.464,1.562-1.393V183.69h2.111Z" transform="translate(-55.917 -176.282)" fill="#67a813"/><path d="M104.159,192.686a4.517,4.517,0,0,1-2.111-.38,30.908,30.908,0,0,1-2.322-2.111,4.294,4.294,0,0,1-8.316-1.583,7.007,7.007,0,0,1,2.6-4.5l-.633-.718,1.5-1.52,6.669,7.092a8.443,8.443,0,0,0,1.119,1.076,3.5,3.5,0,0,0,1.52.338Zm-6.332-3.862A1.6,1.6,0,0,0,97.4,187.6l-1.794-1.773c-.675.654-1.119,1.1-1.287,1.309a2.765,2.765,0,0,0-.654,1.688,1.836,1.836,0,0,0,.57,1.414,2.3,2.3,0,0,0,2.955-.021,1.752,1.752,0,0,0,.591-1.456Z" transform="translate(-42.902 -178.292)" fill="#67a813"/><path d="M105.442,194.519h-.654a5.044,5.044,0,0,1-3.229-.865,3.419,3.419,0,0,1-1.456.781,24.044,24.044,0,0,1-3.1.084v-2.237h1.6a1.52,1.52,0,0,0,1.414-.57,3.777,3.777,0,0,0,.232-1.6V180.23h2.216v10.321c0,.823.253,1.309.718,1.52a10.4,10.4,0,0,0,2.111.19Z" transform="translate(-36.693 -180.124)" fill="#67a813"/><path d="M113.343,187.318l-5.087,2.891a9.983,9.983,0,0,1-3.778,1.245c-.549,0-1.878.127-3.989.169v-2.237h1.773a11.123,11.123,0,0,0,4.538-.929l4.221-2.258a2.111,2.111,0,0,0-1.5-1.14c-.211,0-2.111-.106-5.8-.148l-.3-2.111h5.488a4.052,4.052,0,0,1,4.432,4.517Z" transform="translate(-32.817 -177.292)" fill="#67a813"/><path d="M118.228,190.576a2.659,2.659,0,0,1-2.385-1.055,7.535,7.535,0,0,1-1.393,4.643,5,5,0,0,1-4.221,2.111h-2.87L107,194.164h3.06a3.651,3.651,0,0,0,2.469-.886,3.039,3.039,0,0,0,1.076-2.364V183.78h2.111v3.208c0,1.013.823,1.52,2.427,1.562Z" transform="translate(-25.587 -176.182)" fill="#67a813"/><path d="M122.051,187.489a4.918,4.918,0,0,1-.95,3.124,3.461,3.461,0,0,1-2.913,1.351,3.968,3.968,0,0,1-2.512-.844,10.871,10.871,0,0,1-3.757.549v-2.216q1.878,0,2.111-.38a7.115,7.115,0,0,0,.127-1.71c0-3.06,1.414-4.6,3.989-4.6a3.314,3.314,0,0,1,2.891,1.5,5.445,5.445,0,0,1,1.013,3.229Zm-1.942-.127c0-1.6-.633-2.406-1.921-2.406s-1.942.823-1.942,2.49.654,2.3,1.942,2.3,1.921-.8,1.921-2.406Z" transform="translate(-20.123 -177.316)" fill="#67a813"/></g></g></svg>