<?xml version="1.0" encoding="utf-8"?>
<!-- Generator: Adobe Illustrator 23.0.0, SVG Export Plug-In . SVG Version: 6.00 Build 0)  -->
<svg version="1.1" id="Layer_1" xmlns="http://www.w3.org/2000/svg" xmlns:xlink="http://www.w3.org/1999/xlink" x="0px" y="0px"
	 viewBox="0 0 239.5 14.3" style="enable-background:new 0 0 239.5 14.3;" xml:space="preserve">
<style type="text/css">
	.st0{clip-path:url(#SVGID_2_);}
	.st1{fill:#A2CE69;}
	.st2{fill:#546775;}
	.st3{fill:#60B89F;}
	.st4{fill:#A97788;}
	.st5{fill:#5EC1A0;}
	.st6{fill:#5CC09F;}
	.st7{fill:#507368;}
	.st8{fill:#6B3061;}
	.st9{fill:#575E7C;}
	.st10{fill:#80BCA0;}
	.st11{fill:#748885;}
	.st12{fill:#48737A;}
	.st13{fill:#837680;}
	.st14{fill:#D38792;}
	.st15{fill:#DAE9B7;}
	.st16{fill:#BBD76C;}
	.st17{fill:#BDD757;}
	.st18{fill:#E7D694;}
	.st19{fill:#C7DF94;}
	.st20{fill:#929995;}
	.st21{fill:#A68B92;}
	.st22{fill:#C5DA91;}
	.st23{fill:#D1E3B7;}
	.st24{fill:#86BA9A;}
	.st25{fill:#A1C562;}
	.st26{fill:#402F5A;}
	.st27{fill:#AC657E;}
	.st28{fill:#BB4934;}
	.st29{fill:#DE6629;}
	.st30{fill:#52A49F;}
	.st31{fill:#869394;}
	.st32{fill:#B46988;}
	.st33{fill:#D8AD71;}
</style>
<title>navar_payin</title>
<g id="disinge">
	<g>
		<defs>
			<rect id="SVGID_1_" y="-0.2" width="239.5" height="14.5"/>
		</defs>
		<clipPath id="SVGID_2_">
			<use xlink:href="#SVGID_1_"  style="overflow:visible;"/>
		</clipPath>
		<g class="st0">
			<polygon class="st1" points="-0.5,0 -0.5,14.8 -0.4,14.8 6.9,0 			"/>
			<polygon class="st2" points="-0.4,14.8 14.1,14.8 6.9,0 			"/>
			<polygon class="st3" points="6.9,0 14.1,14.8 14.7,14.8 22,0 			"/>
			<polygon class="st4" points="14.7,14.8 29.2,14.8 22,0 			"/>
			<polygon class="st5" points="22,0 29.2,14.8 29.8,14.8 37,0 			"/>
			<polygon class="st6" points="29.8,14.8 44.3,14.8 37,0 			"/>
			<polygon class="st7" points="37,0 44.3,14.8 44.8,14.8 52.1,0 			"/>
			<polygon class="st8" points="44.8,14.8 59.3,14.8 52.1,0 			"/>
			<polygon class="st9" points="52.1,0 59.3,14.8 59.9,14.8 67.1,0 			"/>
			<polygon class="st10" points="59.9,14.8 74.4,14.8 67.1,0 			"/>
			<polygon class="st11" points="67.1,0 74.4,14.8 75,14.8 82.2,0 			"/>
			<polygon class="st12" points="75,14.8 89.4,14.8 82.2,0 			"/>
			<polygon class="st13" points="82.2,0 89.4,14.8 90,14.8 97.3,0 			"/>
			<polygon class="st14" points="90,14.8 104.5,14.8 97.3,0 			"/>
			<polygon class="st15" points="97.3,0 104.5,14.8 105.1,14.8 112.3,0 			"/>
			<polygon class="st16" points="105.1,14.8 119.6,14.8 112.3,0 			"/>
			<polygon class="st17" points="112.3,0 119.6,14.8 120.2,14.8 127.4,0 			"/>
			<polygon class="st18" points="120.2,14.8 134.6,14.8 127.4,0 			"/>
			<polygon class="st19" points="127.4,0 134.6,14.8 135.2,14.8 142.5,0 			"/>
			<polygon class="st20" points="135.2,14.8 149.7,14.8 142.5,0 			"/>
			<polygon class="st21" points="142.5,0 149.7,14.8 150.3,14.8 157.5,0 			"/>
			<polygon class="st22" points="150.3,14.8 164.8,14.8 157.5,0 			"/>
			<polygon class="st23" points="157.5,0 164.8,14.8 165.4,14.8 172.6,0 			"/>
			<polygon class="st24" points="165.4,14.8 179.8,14.8 172.6,0 			"/>
			<polygon class="st25" points="172.6,0 179.8,14.8 180.4,14.8 187.7,0 			"/>
			<polygon class="st26" points="180.4,14.8 194.9,14.8 187.7,0 			"/>
			<polygon class="st27" points="187.7,0 194.9,14.8 195.5,14.8 202.7,0 			"/>
			<polygon class="st28" points="195.5,14.8 210,14.8 202.7,0 			"/>
			<polygon class="st29" points="202.7,0 210,14.8 210.6,14.8 217.8,0 			"/>
			<polygon class="st30" points="210.6,14.8 225,14.8 217.8,0 			"/>
			<polygon class="st31" points="217.8,0 225,14.8 225.6,14.8 232.9,0 			"/>
			<polygon class="st32" points="225.6,14.8 240.1,14.8 232.9,0 			"/>
			<polygon class="st33" points="240.1,14.8 240.5,14.8 240.5,0 232.9,0 			"/>
		</g>
	</g>
</g>
</svg>
