<?xml version="1.0" encoding="utf-8"?>
<!-- Generator: Adobe Illustrator 23.0.0, SVG Export Plug-In . SVG Version: 6.00 Build 0)  -->
<svg version="1.1" id="Layer_1" xmlns="http://www.w3.org/2000/svg" xmlns:xlink="http://www.w3.org/1999/xlink" x="0px" y="0px"
	 viewBox="0 0 239.5 14.5" style="enable-background:new 0 0 239.5 14.5;" xml:space="preserve">
<style type="text/css">
	.st0{clip-path:url(#SVGID_2_);}
	.st1{fill:#E9B5A5;}
	.st2{fill:#B36684;}
	.st3{fill:#48878D;}
	.st4{fill:#45818D;}
	.st5{fill:#23425C;}
	.st6{fill:#275367;}
	.st7{fill:#3EB795;}
	.st8{fill:#308280;}
	.st9{fill:#4B2D5A;}
	.st10{fill:#D84178;}
	.st11{fill:#7F9D96;}
	.st12{fill:#5EC1A0;}
	.st13{fill:#4D7B80;}
	.st14{fill:#B33970;}
	.st15{fill:#492C5C;}
	.st16{fill:#3A3157;}
	.st17{fill:#7C3565;}
	.st18{fill:#A7B677;}
	.st19{fill:#A7A98E;}
	.st20{fill:#D0D1A6;}
	.st21{fill:#4A8082;}
	.st22{fill:#479194;}
	.st23{fill:#8AAC4F;}
	.st24{fill:#5C8562;}
	.st25{fill:#2E363E;}
	.st26{fill:#34434C;}
	.st27{fill:#399C8C;}
	.st28{fill:#6C8683;}
	.st29{fill:#B2B98D;}
	.st30{fill:#BDD752;}
	.st31{fill:#D7DB3A;}
	.st32{fill:#DEA32C;}
	.st33{fill:#6D6053;}
</style>
<title>navar_bala</title>
<g id="disinge">
	<g>
		<defs>
			<rect id="SVGID_1_" width="239.5" height="14.5"/>
		</defs>
		<clipPath id="SVGID_2_">
			<use xlink:href="#SVGID_1_"  style="overflow:visible;"/>
		</clipPath>
		<g class="st0">
			<polygon class="st1" points="-0.5,0.1 -0.5,15.1 6.9,15.1 			"/>
			<polygon class="st2" points="14.3,0 -0.5,0 -0.5,0.1 6.9,15.1 			"/>
			<polygon class="st3" points="22,15.1 14.5,0 14.3,0 6.9,15.1 			"/>
			<polygon class="st4" points="29.4,0 14.5,0 22,15.1 			"/>
			<polygon class="st5" points="37,15.1 29.6,0 29.4,0 22,15.1 			"/>
			<polygon class="st6" points="44.4,0 29.6,0 37,15.1 			"/>
			<polygon class="st7" points="52.1,15.1 44.7,0 44.4,0 37,15.1 			"/>
			<polygon class="st8" points="59.5,0 44.7,0 52.1,15.1 			"/>
			<polygon class="st9" points="67.1,15.1 59.7,0 59.5,0 52.1,15.1 			"/>
			<polygon class="st10" points="74.6,0 59.7,0 67.1,15.1 			"/>
			<polygon class="st11" points="82.2,15.1 74.8,0 74.6,0 67.1,15.1 			"/>
			<polygon class="st12" points="89.6,0 74.8,0 82.2,15.1 			"/>
			<polygon class="st13" points="97.3,15.1 89.8,0 89.6,0 82.2,15.1 			"/>
			<polygon class="st14" points="104.7,0 89.8,0 97.3,15.1 			"/>
			<polygon class="st15" points="112.3,15.1 104.9,0 104.7,0 97.3,15.1 			"/>
			<polygon class="st16" points="119.8,0 104.9,0 112.3,15.1 			"/>
			<polygon class="st17" points="127.4,15.1 120,0 119.8,0 112.3,15.1 			"/>
			<polygon class="st18" points="134.8,0 120,0 127.4,15.1 			"/>
			<polygon class="st19" points="142.5,15.1 135.1,0 134.8,0 127.4,15.1 			"/>
			<polygon class="st20" points="149.9,0 135.1,0 142.5,15.1 			"/>
			<polygon class="st21" points="157.5,15.1 150.1,0 149.9,0 142.5,15.1 			"/>
			<polygon class="st22" points="164.9,0 150.1,0 157.5,15.1 			"/>
			<polygon class="st23" points="172.6,15.1 165.2,0 164.9,0 157.5,15.1 			"/>
			<polygon class="st24" points="180,0 165.2,0 172.6,15.1 			"/>
			<polygon class="st25" points="187.7,15.1 180.2,0 180,0 172.6,15.1 			"/>
			<polygon class="st26" points="195.1,0 180.2,0 187.7,15.1 			"/>
			<polygon class="st27" points="202.7,15.1 195.3,0 195.1,0 187.7,15.1 			"/>
			<polygon class="st28" points="210.1,0 195.3,0 202.7,15.1 			"/>
			<polygon class="st29" points="217.8,15.1 210.4,0 210.1,0 202.7,15.1 			"/>
			<polygon class="st30" points="225.2,0 210.4,0 217.8,15.1 			"/>
			<polygon class="st31" points="232.9,15.1 225.4,0 225.2,0 217.8,15.1 			"/>
			<polygon class="st32" points="240.3,0 225.4,0 232.9,15.1 			"/>
			<polygon class="st33" points="240.5,15.1 240.5,0 240.5,0 240.3,0 232.9,15.1 			"/>
		</g>
	</g>
</g>
</svg>
