<svg xmlns="http://www.w3.org/2000/svg" width="115.338" height="129.781" viewBox="0 0 115.338 129.781"><g transform="translate(-95.7 -193.4)"><path d="M261.5,193.4a21.29,21.29,0,0,1,5.057,16.8,33.665,33.665,0,0,1-4.686,13.258c-2.486,4.143-5.314,8.115-8,12.143-.371.571-.8,1.086-1.171,1.657-1.286,1.971-1.086,2.514,1.286,2.972,5.6,1.057,11.229,1.943,16.8,3.114a39.9,39.9,0,0,1,7.2,2.314c4.372,1.771,5.743,4.029,5,8.572C279.76,274.317,275.046,294,267.16,312.8a55.09,55.09,0,0,1-4.086,7.4,6.031,6.031,0,0,1-5.829,2.971c-16.172-.571-31.973-3.029-47.2-8.657-4.086-1.514-8.029-3.314-11.286-6.372a6.13,6.13,0,0,1-2.057-4.714q.043-23.744,0-47.516a9.891,9.891,0,0,1,2.486-6.2,56.037,56.037,0,0,1,10.572-9.572c4.4-3.257,8.829-6.543,13.515-9.4,9.572-5.886,17.372-13.6,24.172-22.458,2.171-2.857,4.314-5.743,6.657-8.457,1.943-2.257,4.114-4.286,6.2-6.429Z" transform="translate(-72.142)" fill="#0d8dbf"/><path d="M118.272,435.4c-1.971-.229-4-.314-5.943-.714-5.686-1.171-10.4-3.857-13.543-8.915a19.017,19.017,0,0,1-2.914-9.715c-.143-7.715-.171-15.458-.171-23.172,0-5.543,0-11.058.143-16.6a20.373,20.373,0,0,1,16.972-19.6c1.8-.314,3.629-.457,5.429-.686.057.143.114.286.2.457-.286.371-.543.771-.829,1.143-1.371,1.6-2.857,3.114-4.086,4.8a18.55,18.55,0,0,0-3.4,11.315c0,14.915.029,29.8,0,44.716a18.762,18.762,0,0,0,5.8,13.715c.886.886,1.743,1.8,2.6,2.686A2.52,2.52,0,0,0,118.272,435.4Z" transform="translate(0 -116.141)" fill="#4fc7db"/></g></svg>