<svg width="20" height="auto" id="Object" xmlns="http://www.w3.org/2000/svg" viewBox="0 0 431.96 650"><defs><style>.cls-1{fill:#bd242b;}.cls-2{fill:#fff;}.cls-3{fill:#cd4a45;}.cls-4{fill:#ac262b;}</style></defs><title>25530 [Converted]</title><path class="cls-1" d="M777,452c0,119.28-216,434-216,434S345,571.26,345,452s96.7-216,216-216S777,332.7,777,452Z" transform="translate(-345.02 -236)"/><circle class="cls-2" cx="561" cy="442.46" r="101.52" transform="translate(-493.57 290.28) rotate(-45)"/><path class="cls-3" d="M382,471c0-103.62,84-187.62,187.62-187.62a187.3,187.3,0,0,1,148.72,73.25,187.54,187.54,0,0,0-162.69-94.11c-103.62,0-187.62,84-187.62,187.62A186.76,186.76,0,0,0,407,564.46,186.73,186.73,0,0,1,382,471Z" transform="translate(-345.02 -236)"/><path class="cls-4" d="M510.07,803.39C539.5,852.7,561,886,561,886S777,571.26,777,452c0-6.26-.33-12.45-.85-18.57a524.38,524.38,0,0,1-35.36,96.19C699.89,614.7,639.43,669.22,575,738.26,554.28,760.52,532.67,782.53,510.07,803.39Z" transform="translate(-345.02 -236)"/></svg>