<svg xmlns="http://www.w3.org/2000/svg" xmlns:xlink="http://www.w3.org/1999/xlink" width="570.05" height="218.5" viewBox="0 0 570.05 218.5"><defs><linearGradient id="a" y1="0.5" x2="1" y2="0.5" gradientUnits="objectBoundingBox"><stop offset="0" stop-color="#c9dae9"/><stop offset="1" stop-color="#cecce0"/></linearGradient><linearGradient id="b" y1="0.5" x2="1" y2="0.5" gradientUnits="objectBoundingBox"><stop offset="0.35" stop-color="#848484"/><stop offset="0.6" stop-color="#2879c4"/><stop offset="1" stop-color="#5045ab"/></linearGradient></defs><g transform="translate(-210.825 -153.2)"><path d="M713.9,182.9H645l-34.5,59.6L645,302.2h68.9l34.4-59.7Z" fill="url(#a)"/><path d="M530.3,182.9H461.4L427,242.5l34.4,59.7h68.9l34.4-59.7Z" fill="#bcbcbc"/><path d="M346.7,182.9H277.9l-34.5,59.6,34.5,59.7h68.8l34.5-59.7Z" fill="#bcbcbc"/><path d="M725.6,330.7H633.9a9.449,9.449,0,0,1-8.1-4.7L596,274.3a9.3,9.3,0,0,1,16.1-9.3l27.2,47h81l40.5-70.1-40.5-70.1h-81L549.9,326a9.193,9.193,0,0,1-8,4.6H450.2a9.449,9.449,0,0,1-8.1-4.7l-29.9-51.8a9.3,9.3,0,0,1,16.1-9.3L455.5,312h81l89.4-154.2a9.193,9.193,0,0,1,8-4.6h91.7a9.449,9.449,0,0,1,8.1,4.7l45.9,79.4a9.117,9.117,0,0,1,0,9.3L733.7,326A9.327,9.327,0,0,1,725.6,330.7Z" fill="url(#b)"/><path d="M357.8,330.7H266.1A9.449,9.449,0,0,1,258,326l-45.9-79.4a9.117,9.117,0,0,1,0-9.3L258,157.9a9.327,9.327,0,0,1,8.1-4.7h91.7a9.449,9.449,0,0,1,8.1,4.7l29.8,51.7a9.3,9.3,0,0,1-16.1,9.3l-27.2-47h-81L230.9,242l40.5,70.1h81l89.4-154.2a9.235,9.235,0,0,1,8.1-4.6h91.7a9.449,9.449,0,0,1,8.1,4.7l29.9,51.8a9.3,9.3,0,0,1-16.1,9.3l-27.2-47.2h-81L365.8,326A9.288,9.288,0,0,1,357.8,330.7Z" fill="#848484"/><path d="M680.9,256.7h-.2a13.416,13.416,0,0,1-10.3-4.3c-5.6-6.3-4.8-17.3-4.7-18.9v-.3c.6-11.2,7.9-15.2,14.7-15.2h.7c6.7,0,14.1,4,14.7,15.3h0c0,.1,1.3,12.4-4.7,19.1a13.053,13.053,0,0,1-10.2,4.3Zm-11-22.6c-.1,1.6-.6,10.8,3.6,15.6a8.793,8.793,0,0,0,7.1,2.9l.1,2.1.1-2.1a8.972,8.972,0,0,0,7.1-2.9c4.4-4.9,3.7-14.6,3.6-15.7v-.5c-.5-10.2-7.5-11.3-10.5-11.3h-.7c-3,0-10,1.1-10.5,11.4Z" fill="#055777"/><path d="M680.8,279.6a37.949,37.949,0,0,1-28.5-12.9,2.389,2.389,0,0,1-.5-1.4v-.4a2.131,2.131,0,0,1,1.5-2c12.3-4,16.1-8.7,17.2-11.1a2.128,2.128,0,0,1,2.8-1,17.489,17.489,0,0,0,7,1.4h.6a17.143,17.143,0,0,0,7.7-1.8,2.12,2.12,0,0,1,2.8.9c1.5,2.9,5.8,8.2,17,11.7a2.365,2.365,0,0,1,1.3,1.1,2.007,2.007,0,0,1,.1,1.7l-.2.6a2.091,2.091,0,0,1-.4.6A38.816,38.816,0,0,1,680.8,279.6ZM657.4,266a34.112,34.112,0,0,0,23.4,9.5,33.592,33.592,0,0,0,23.3-9.4c-8.8-3.3-13.3-7.8-15.5-11.1a22.054,22.054,0,0,1-7.8,1.4h-.6a21.7,21.7,0,0,1-6.9-1.1C671.1,258.6,666.7,262.5,657.4,266Z" fill="#055777"/><path d="M706.7,268.5h-.4c-.1,0-.3-.1-.4-.1a.758.758,0,0,1-.4-.2l-.3-.3-.3-.3c-.1-.1-.1-.2-.2-.4,0-.1-.1-.3-.1-.4v-.4a2.035,2.035,0,0,1,.6-1.5,2.211,2.211,0,0,1,1.9-.6c.1,0,.3.1.4.1.1.1.3.1.4.2l.3.3.3.3c.1.1.1.2.2.4a.6.6,0,0,1,.1.4v.8c0,.1-.1.3-.1.4a1.794,1.794,0,0,1-.5.7l-.3.3c-.1.1-.2.1-.4.2a.6.6,0,0,1-.4.1Z" fill="#055777"/><path d="M710.7,261.6a2.234,2.234,0,0,1-.8-2.9h0a2.234,2.234,0,0,1,2.9-.8h0a2.234,2.234,0,0,1,.8,2.9h0a2.006,2.006,0,0,1-1.8,1h0A1.389,1.389,0,0,1,710.7,261.6ZM647.5,260a2.139,2.139,0,0,1,.8-2.9h0a2.139,2.139,0,0,1,2.9.8h0a2.139,2.139,0,0,1-.8,2.9h0a1.929,1.929,0,0,1-1,.3h0A2.144,2.144,0,0,1,647.5,260Zm67-5.8a2.151,2.151,0,0,1-1.4-2.6h0a2.105,2.105,0,0,1,2.6-1.4h0a2.029,2.029,0,0,1,1.4,2.6h0a2.131,2.131,0,0,1-2,1.5h0A1.268,1.268,0,0,1,714.5,254.2Zm-70.3-2.4a2.086,2.086,0,0,1,1.5-2.6h0a2.086,2.086,0,0,1,2.6,1.5h0a2.165,2.165,0,0,1-1.5,2.6h0c-.2,0-.4.1-.6.1h0A2.023,2.023,0,0,1,644.2,251.8Zm72.2-5.7a2.18,2.18,0,0,1-2-2.2h0a2.18,2.18,0,0,1,2.2-2h0a2.18,2.18,0,0,1,2,2.2h0a2.165,2.165,0,0,1-2.1,2h-.1Zm-73.6-3h0a2.187,2.187,0,0,1,2-2.2h0a2.056,2.056,0,0,1,2.2,2h0a2.187,2.187,0,0,1-2,2.2h-.1A2.022,2.022,0,0,1,642.8,243.1Zm71.3-7a2.066,2.066,0,0,1,1.7-2.4h0a2.066,2.066,0,0,1,2.4,1.7h0a2.12,2.12,0,0,1-1.7,2.4h-.4A1.96,1.96,0,0,1,714.1,236.1Zm-68.9.8a2.167,2.167,0,0,1-1.7-2.5h0a2.167,2.167,0,0,1,2.5-1.7h0a2.167,2.167,0,0,1,1.7,2.5h0a2.14,2.14,0,0,1-2.1,1.7h-.4Zm66.7-8.3a2.267,2.267,0,0,1,1.1-2.8h0a2.086,2.086,0,0,1,2.8,1.1h0a2.086,2.086,0,0,1-1.1,2.8h0a2.353,2.353,0,0,1-.8.2h0A2.244,2.244,0,0,1,711.9,228.6Zm-64.7.2a2.045,2.045,0,0,1-1-2.8h0a2.045,2.045,0,0,1,2.8-1h0a2.045,2.045,0,0,1,1,2.8h0a2.057,2.057,0,0,1-1.9,1.2h0A2.92,2.92,0,0,1,647.2,228.8Zm60.8-7h0a2,2,0,0,1,.5-2.9h0a2.123,2.123,0,0,1,3,.5h0a2,2,0,0,1-.5,2.9h0a1.922,1.922,0,0,1-1.2.4h0A3.1,3.1,0,0,1,708,221.8Zm-56.9-.4a2.182,2.182,0,0,1-.4-3h0a2.182,2.182,0,0,1,3-.4h0a2.182,2.182,0,0,1,.4,3h0a2.136,2.136,0,0,1-1.7.8h0A1.575,1.575,0,0,1,651.1,221.4Zm51.6-5.4a2.089,2.089,0,0,1-.2-3h0a2.089,2.089,0,0,1,3-.2h0a2.089,2.089,0,0,1,.2,3h0a1.99,1.99,0,0,1-1.6.7h0A1.871,1.871,0,0,1,702.7,216Zm-46.2-.9a2.191,2.191,0,0,1,.3-3h0a2.191,2.191,0,0,1,3,.3h0a2.191,2.191,0,0,1-.3,3h0a2.355,2.355,0,0,1-1.3.5h0A1.88,1.88,0,0,1,656.5,215.1Zm39.8-3.5a2.12,2.12,0,0,1-.9-2.8h0a2.12,2.12,0,0,1,2.8-.9h0a2.12,2.12,0,0,1,.9,2.8h0a2.144,2.144,0,0,1-1.9,1.1h0A1.02,1.02,0,0,1,696.3,211.6Zm-33-1.3a2.073,2.073,0,0,1,1-2.8h0a2.045,2.045,0,0,1,2.8,1h0a2.073,2.073,0,0,1-1,2.8h0a2.919,2.919,0,0,1-.9.2h0A2.121,2.121,0,0,1,663.3,210.3Zm25.7-1.4a2.06,2.06,0,0,1-1.5-2.5h0a2.118,2.118,0,0,1,2.6-1.5h0a2.118,2.118,0,0,1,1.5,2.6h0a2.023,2.023,0,0,1-2,1.6h0A3.933,3.933,0,0,0,689,208.9Zm-18.1-1.8a2.077,2.077,0,0,1,1.6-2.5h0a2.077,2.077,0,0,1,2.5,1.6h0a2.077,2.077,0,0,1-1.6,2.5H673A2.055,2.055,0,0,1,670.9,207.1Zm10.3.8a2.112,2.112,0,0,1-2.1-2.1h0a2.112,2.112,0,0,1,2.1-2.1h0a2.112,2.112,0,0,1,2.1,2.1h0a2.051,2.051,0,0,1-2.1,2.1Z" fill="#055777"/><path d="M654.2,267.9a2.051,2.051,0,0,1-2.1-2.1v-.4c0-.1.1-.3.1-.4a.758.758,0,0,1,.2-.4l.3-.3a2.211,2.211,0,0,1,1.9-.6c.1,0,.3.1.4.1.1.1.3.1.4.2l.3.3a2.175,2.175,0,0,1,0,3l-.3.3c-.1.1-.2.1-.4.2-.1,0-.3.1-.4.1Z" fill="#055777"/><path d="M479.6,248.3a7.341,7.341,0,0,1-7.3-7.3v-7l6.7-10.8h12.3L486.9,235v6A7.277,7.277,0,0,1,479.6,248.3Zm-3.1-13.1V241a3.1,3.1,0,1,0,6.2,0v-6.8l2.5-6.8h-3.9Z" fill="#757575"/><path d="M490.1,248.3a7.341,7.341,0,0,1-7.3-7.3v-6.8l4.1-11h10.5V241A7.341,7.341,0,0,1,490.1,248.3Zm-3.2-13.4v6a3.1,3.1,0,0,0,6.2,0V227.4h-3.4Z" fill="#757575"/><path d="M510.9,248.3a7.341,7.341,0,0,1-7.3-7.3v-6l-4.4-11.8h12.3l6.7,10.8v7A7.341,7.341,0,0,1,510.9,248.3Zm-5.6-20.9,2.5,6.8V241a3.1,3.1,0,0,0,6.2,0v-5.8l-4.9-7.8Z" fill="#757575"/><path d="M500.5,248.3a7.341,7.341,0,0,1-7.3-7.3V223.2h10.5l4.1,11V241A7.341,7.341,0,0,1,500.5,248.3Zm-3.1-20.9v13.5a3.1,3.1,0,0,0,6.2,0v-6l-2.8-7.5Z" fill="#757575"/><path d="M495.1,279.6H493V264.8h-6.3l.3,14-2.8-.8a37.758,37.758,0,0,1-8.5-3.7l-1-.6V245.9h4.2v25.4a26.4,26.4,0,0,0,3.8,1.8l-.3-12.4h14.8v14.7a34.629,34.629,0,0,0,15.3-4.7V243.9h4.2v29.2l-1,.6A38.909,38.909,0,0,1,495.1,279.6Z" fill="#757575"/><path d="M521.1,268.5a2.122,2.122,0,0,1-1.5-3.6l.3-.3c.1-.1.2-.1.4-.2.1,0,.3-.1.4-.1a2.211,2.211,0,0,1,1.9.6,2.035,2.035,0,0,1,.6,1.5v.4c0,.1-.1.3-.1.4s-.1.2-.2.4l-.3.3A2.2,2.2,0,0,1,521.1,268.5Z" fill="#757575"/><path d="M525,261.6a2.234,2.234,0,0,1-.8-2.9h0a2.234,2.234,0,0,1,2.9-.8h0a2.234,2.234,0,0,1,.8,2.9h0a2.006,2.006,0,0,1-1.8,1h0A1.389,1.389,0,0,1,525,261.6ZM461.8,260h0a2.139,2.139,0,0,1,.8-2.9h0a2.139,2.139,0,0,1,2.9.8h0a2.139,2.139,0,0,1-.8,2.9h0a1.929,1.929,0,0,1-1,.3h0A2.144,2.144,0,0,1,461.8,260Zm67-5.8a2.151,2.151,0,0,1-1.4-2.6h0a2.105,2.105,0,0,1,2.6-1.4h0a2.105,2.105,0,0,1,1.4,2.6h0a2.131,2.131,0,0,1-2,1.5h0A1.268,1.268,0,0,1,528.8,254.2Zm-70.3-2.4a2.165,2.165,0,0,1,1.5-2.6h0a2.086,2.086,0,0,1,2.6,1.5h0a2.086,2.086,0,0,1-1.5,2.6h0c-.2,0-.4.1-.6.1h0A2.106,2.106,0,0,1,458.5,251.8Zm72.3-5.7a2.18,2.18,0,0,1-2-2.2h0a2.18,2.18,0,0,1,2.2-2h0a2.18,2.18,0,0,1,2,2.2h0a2.165,2.165,0,0,1-2.1,2h-.1Zm-73.6-3a2.187,2.187,0,0,1,2-2.2h0a2.187,2.187,0,0,1,2.2,2h0a2.187,2.187,0,0,1-2,2.2h-.1A1.916,1.916,0,0,1,457.2,243.1Zm71.2-7a2.066,2.066,0,0,1,1.7-2.4h0a2.066,2.066,0,0,1,2.4,1.7h0a2.12,2.12,0,0,1-1.7,2.4h-.4A2.116,2.116,0,0,1,528.4,236.1Zm-68.9.8a2.094,2.094,0,0,1-1.7-2.5h0a2.167,2.167,0,0,1,2.5-1.7h0a2.167,2.167,0,0,1,1.7,2.5h0a2.14,2.14,0,0,1-2.1,1.7h-.4Zm66.7-8.3h0a2.267,2.267,0,0,1,1.1-2.8h0a2.086,2.086,0,0,1,2.8,1.1h0a2.17,2.17,0,0,1-1.1,2.8h0a2.353,2.353,0,0,1-.8.2h0A2.507,2.507,0,0,1,526.2,228.6Zm-64.7.2a2.17,2.17,0,0,1-1.1-2.8h0a2.17,2.17,0,0,1,2.8-1.1h0a2.045,2.045,0,0,1,1,2.8h0a2.057,2.057,0,0,1-1.9,1.2h0A1.185,1.185,0,0,1,461.5,228.8Zm60.9-7a2,2,0,0,1,.5-2.9h0a2.123,2.123,0,0,1,3,.5h0a2,2,0,0,1-.5,2.9h0a1.922,1.922,0,0,1-1.2.4h0A2.606,2.606,0,0,1,522.4,221.8Zm-57-.4a2.182,2.182,0,0,1-.4-3h0a2.182,2.182,0,0,1,3-.4h0a2.182,2.182,0,0,1,.4,3h0a2.136,2.136,0,0,1-1.7.8h0A1.575,1.575,0,0,1,465.4,221.4Zm51.7-5.4a2.089,2.089,0,0,1-.2-3h0a2.089,2.089,0,0,1,3-.2h0a2.089,2.089,0,0,1,.2,3h0a1.99,1.99,0,0,1-1.6.7h0A1.872,1.872,0,0,1,517.1,216Zm-46.3-.9a2.191,2.191,0,0,1,.3-3h0a2.191,2.191,0,0,1,3,.3h0a2.191,2.191,0,0,1-.3,3h0a2.355,2.355,0,0,1-1.3.5h0A2.112,2.112,0,0,1,470.8,215.1Zm39.8-3.5h0a2.12,2.12,0,0,1-.9-2.8h0a2.12,2.12,0,0,1,2.8-.9h0a2.209,2.209,0,0,1,.9,2.9h0a2.144,2.144,0,0,1-1.9,1.1h0A1.9,1.9,0,0,1,510.6,211.6Zm-33-1.3a2.073,2.073,0,0,1,1-2.8h0a2.073,2.073,0,0,1,2.8,1h0a2.073,2.073,0,0,1-1,2.8h0a2.92,2.92,0,0,1-.9.2h0A2.121,2.121,0,0,1,477.6,210.3Zm25.7-1.4h0a2.118,2.118,0,0,1-1.5-2.6h0a2.118,2.118,0,0,1,2.6-1.5h0a2.118,2.118,0,0,1,1.5,2.6h0a2.023,2.023,0,0,1-2,1.6h0C503.6,209,503.5,208.9,503.3,208.9Zm-18-1.8a2.077,2.077,0,0,1,1.6-2.5h0a2.077,2.077,0,0,1,2.5,1.6h0a2.077,2.077,0,0,1-1.6,2.5h-.5A1.948,1.948,0,0,1,485.3,207.1Zm10.2.8a2.112,2.112,0,0,1-2.1-2.1h0a2.112,2.112,0,0,1,2.1-2.1h0a2.112,2.112,0,0,1,2.1,2.1h0a1.994,1.994,0,0,1-2.1,2.1Z" fill="#757575"/><path d="M468.6,267.9a2.035,2.035,0,0,1-1.5-.6,4.233,4.233,0,0,1-.5-.7c0-.1-.1-.3-.1-.4v-.8c0-.1.1-.3.1-.4.1-.1.1-.3.2-.4l.3-.3.3-.3c.1-.1.2-.1.4-.2.1,0,.3-.1.4-.1a1.1,1.1,0,0,1,.8,0c.1,0,.3.1.4.1.1.1.3.1.4.2l.3.3.3.3c.1.1.1.2.2.4,0,.1.1.3.1.4v.8c0,.1-.1.3-.1.4-.1.1-.1.3-.2.4l-.3.3-.3.3c-.1.1-.2.1-.4.2-.1,0-.3.1-.4.1Z" fill="#757575"/><path d="M329.6,238.2H318.3a2.051,2.051,0,0,1-2.1-2.1V224.8a1.955,1.955,0,0,1,1.3-1.9,2.176,2.176,0,0,1,2.3.5l11.3,11.3a2.176,2.176,0,0,1,.5,2.3A2.275,2.275,0,0,1,329.6,238.2Zm-9.2-4.2h4.1l-4.1-4.1Z" fill="#757575"/><path d="M323,244.8H302.2a2.1,2.1,0,0,1,0-4.2H323a2.1,2.1,0,1,1,0,4.2Z" fill="#757575"/><path d="M323,254.3H302.2a2.1,2.1,0,0,1,0-4.2H323a2.1,2.1,0,1,1,0,4.2Z" fill="#757575"/><path d="M323,263.7H302.2a2.1,2.1,0,1,1,0-4.2H323a2.1,2.1,0,1,1,0,4.2Z" fill="#757575"/><path d="M311.6,279.6a36.871,36.871,0,0,1-16.9-4,2.241,2.241,0,0,1-1.2-1.9v-49a2.051,2.051,0,0,1,2.1-2.1h22.7a2.035,2.035,0,0,1,1.5.6l11.3,11.3a2.035,2.035,0,0,1,.6,1.5v36.5a2.1,2.1,0,0,1-1,1.8A36.924,36.924,0,0,1,311.6,279.6Zm-13.9-7.2a32.981,32.981,0,0,0,13.8,3,34.183,34.183,0,0,0,16-4V237l-10.1-10.1H297.7v43.3h0Z" fill="#757575"/><path d="M338.7,267.5a1.884,1.884,0,0,1-.8-.2,1.794,1.794,0,0,1-.7-.5l-.3-.3c-.1-.1-.1-.2-.2-.4a.6.6,0,0,1-.1-.4v-.4a2.2,2.2,0,0,1,.6-1.5l.3-.3c.1-.1.2-.1.4-.2a.6.6,0,0,1,.4-.1,1.1,1.1,0,0,1,.8,0c.1,0,.3.1.4.1.1.1.3.1.4.2l.3.3a2.175,2.175,0,0,1,0,3l-.3.3c-.1.1-.2.1-.4.2a.6.6,0,0,1-.4.1C339,267.4,338.8,267.5,338.7,267.5Z" fill="#757575"/><path d="M279.2,261.3a2.108,2.108,0,0,1,.7-2.9h0a2.108,2.108,0,0,1,2.9.7h0a2.108,2.108,0,0,1-.7,2.9h0a2.016,2.016,0,0,1-1.1.3h0A2.234,2.234,0,0,1,279.2,261.3Zm63.2-.9a2.24,2.24,0,0,1-.9-2.9h0a2.209,2.209,0,0,1,2.9-.9h0a2.209,2.209,0,0,1,.9,2.9h0a2.144,2.144,0,0,1-1.9,1.1h0A1.8,1.8,0,0,1,342.4,260.4Zm-66.8-7.1a2.105,2.105,0,0,1,1.4-2.6h0a2.029,2.029,0,0,1,2.6,1.4h0a2.029,2.029,0,0,1-1.4,2.6h0a1.268,1.268,0,0,1-.6.1h0A2.271,2.271,0,0,1,275.6,253.3Zm70.3-.5a2.118,2.118,0,0,1-1.5-2.6h0a2.118,2.118,0,0,1,2.6-1.5h0a2.118,2.118,0,0,1,1.5,2.6h0a2.23,2.23,0,0,1-2,1.6h0A1.269,1.269,0,0,1,345.9,252.8Zm-72-8.2a2.129,2.129,0,0,1,1.9-2.3h0a2.129,2.129,0,0,1,2.3,1.9h0a2.129,2.129,0,0,1-1.9,2.3H276A2.005,2.005,0,0,1,273.9,244.6Zm73.7.1a2,2,0,0,1-2-2.2h0a2.135,2.135,0,0,1,2.2-2.1h0a2.135,2.135,0,0,1,2.1,2.2h0a2.364,2.364,0,0,1-2.3,2.1ZM276,238.3a2.195,2.195,0,0,1-1.8-2.4h0a2.281,2.281,0,0,1,2.4-1.8h0a2.195,2.195,0,0,1,1.8,2.4h0a2.232,2.232,0,0,1-2.1,1.8H276Zm68.8-3.5a2.155,2.155,0,0,1,1.6-2.5h0a2.155,2.155,0,0,1,2.5,1.6h0a2.155,2.155,0,0,1-1.6,2.5h-.4A2.055,2.055,0,0,1,344.8,234.8Zm-67.1-4.7a2.18,2.18,0,0,1-1.2-2.8h0a2.1,2.1,0,0,1,2.7-1.2h0a2.18,2.18,0,0,1,1.2,2.8h0a2.087,2.087,0,0,1-2,1.3h0C278.3,230.3,278,230.2,277.7,230.1Zm64.7-2.8a2.128,2.128,0,0,1,1-2.8h0a2.128,2.128,0,0,1,2.8,1h0a2.16,2.16,0,0,1-1,2.8h0a2.92,2.92,0,0,1-.9.2h0A1.83,1.83,0,0,1,342.4,227.3Zm-61.1-4.7a2.009,2.009,0,0,1-.5-2.9h0a2.094,2.094,0,0,1,2.9-.5h0a2.094,2.094,0,0,1,.5,2.9h0a2.091,2.091,0,0,1-1.7.9h0A1.922,1.922,0,0,1,281.3,222.6Zm57-1.9a2.191,2.191,0,0,1,.3-3h0a2.191,2.191,0,0,1,3,.3h0a2.191,2.191,0,0,1-.3,3h0a2.355,2.355,0,0,1-1.3.5h0A2.136,2.136,0,0,1,338.3,220.7Zm-51.8-4.6a2.089,2.089,0,0,1,.2-3h0a2.089,2.089,0,0,1,3,.2h0a2.089,2.089,0,0,1-.2,3h0a1.872,1.872,0,0,1-1.4.5h0A1.99,1.99,0,0,1,286.5,216.1Zm46.2-.9a2.2,2.2,0,0,1-.4-3h0a2.2,2.2,0,0,1,3-.4h0a2.082,2.082,0,0,1,.3,3h0a2.088,2.088,0,0,1-1.6.8h0A2.2,2.2,0,0,1,332.7,215.2ZM293,211a2.09,2.09,0,0,1,.9-2.9h0a2.09,2.09,0,0,1,2.9.9h0a2.034,2.034,0,0,1-.9,2.8h0a1.929,1.929,0,0,1-1,.3h0A2.144,2.144,0,0,1,293,211Zm33.1.1h0a2.073,2.073,0,0,1-1-2.8h0a2.073,2.073,0,0,1,2.8-1h0a2.073,2.073,0,0,1,1,2.8h0a2.057,2.057,0,0,1-1.9,1.2h0A2.92,2.92,0,0,1,326.1,211.1Zm-25.5-3.6a2.165,2.165,0,0,1,1.5-2.6h0a2.165,2.165,0,0,1,2.6,1.5h0a2.165,2.165,0,0,1-1.5,2.6h0a4.331,4.331,0,0,0-.5.1h0A2.159,2.159,0,0,1,300.6,207.5Zm18.1,1.1a2.077,2.077,0,0,1-1.6-2.5h0a2.077,2.077,0,0,1,2.5-1.6h0a2.077,2.077,0,0,1,1.6,2.5h0a2.14,2.14,0,0,1-2.1,1.7h0A.6.6,0,0,0,318.7,208.6Zm-10-2.8a2.2,2.2,0,0,1,2.1-2.2h0a2.2,2.2,0,0,1,2.2,2.1h0a2.2,2.2,0,0,1-2.1,2.2h-.1A2.18,2.18,0,0,1,308.7,205.8Z" fill="#757575"/><path d="M286.2,268.9h-.4c-.1,0-.3-.1-.4-.1-.1-.1-.2-.1-.4-.2l-.3-.3-.3-.3c-.1-.1-.1-.2-.2-.4a.6.6,0,0,1-.1-.4v-.4a2.035,2.035,0,0,1,.6-1.5l.3-.3c.1-.1.2-.1.4-.2.1,0,.3-.1.4-.1a1.1,1.1,0,0,1,.8,0c.1,0,.3.1.4.1.1.1.3.1.4.2l.3.3a2.175,2.175,0,0,1,0,3l-.3.3c-.1.1-.2.1-.4.2-.1,0-.3.1-.4.1Z" fill="#757575"/><path d="M647.7,365.8a6,6,0,0,1-1.5,4.2,5.347,5.347,0,0,1-4.1,1.7h-3.4a5.125,5.125,0,0,1-3.9-1.8,5.672,5.672,0,0,1-1.6-4v-4.6h2.2v4.9a2.8,2.8,0,0,0,1.2,2.3,3.656,3.656,0,0,0,2.5.9H642a3.583,3.583,0,0,0,2.4-.9,2.99,2.99,0,0,0,1.1-2.3V351.8h2.2v14Z" fill="#5045ab"/><path d="M658.6,366.3a5.166,5.166,0,0,1-1.7,3.8,5.7,5.7,0,0,1-3.9,1.6h-2.9l-.3-2.2h2.8a3.738,3.738,0,0,0,2.6-.9,3.1,3.1,0,0,0,1.1-2.5,7.921,7.921,0,0,1-4-.7,3.852,3.852,0,0,1-1.7-3.6c0-1.9.4-3.2,1.3-3.9a3.974,3.974,0,0,1,2.7-.7,3.337,3.337,0,0,1,3.4,2.1,14.288,14.288,0,0,1,.5,4.3v2.7Zm-2.3-2.5v-2.3c0-1.5-.6-2.2-1.7-2.2-.7,0-1.2.2-1.4.7a3.419,3.419,0,0,0-.3,1.7,1.8,1.8,0,0,0,1.1,1.8A4.494,4.494,0,0,0,656.3,363.8Z" fill="#5045ab"/><path d="M664.6,366.1h-2.2V351.8h2.2Z" fill="#5045ab"/><path d="M686,366.1a3.694,3.694,0,0,1-2.1-.4,24.454,24.454,0,0,1-2.3-2,4.205,4.205,0,0,1-4.1,2.7,4.1,4.1,0,0,1-4.2-4.2c0-1.3.9-2.8,2.6-4.5l-.6-.7,1.5-1.5,6.7,7.1,1.1,1.1a2.81,2.81,0,0,0,1.5.3v2.1Zm-6.3-3.9a1.46,1.46,0,0,0-.4-1.2l-1.8-1.8-1.3,1.3a3.1,3.1,0,0,0-.7,1.7,1.816,1.816,0,0,0,.6,1.4,1.964,1.964,0,0,0,1.5.5,2.035,2.035,0,0,0,1.5-.6A1.486,1.486,0,0,0,679.7,362.2Z" fill="#5045ab"/><path d="M693.4,366.1h-.7a4.885,4.885,0,0,1-3.2-.9,4.1,4.1,0,0,1-1.4.8c-.3,0-1.3.1-2.9.1v-2.2h1.6c.7,0,1.2-.2,1.4-.6a3.221,3.221,0,0,0,.2-1.6v-9.9h2.2v10.3c0,.8.2,1.3.7,1.5a6.74,6.74,0,0,0,2.1.2v2.3Z" fill="#5045ab"/><path d="M705.3,361.8l-5.1,2.9a8.111,8.111,0,0,1-3.8,1.2c-.6.1-1.9.1-4,.2v-2.2h1.8a11.3,11.3,0,0,0,4.5-.9c.2-.1,1.6-.9,4.1-2.3-.2-.6-.7-.9-1.5-1.1-.2,0-2.1-.1-5.8-.1l-.3-2.2h5.5C703.8,357.2,705.3,358.7,705.3,361.8Z" fill="#5045ab"/><path d="M717.4,366.1A2.776,2.776,0,0,1,715,365a7.409,7.409,0,0,1-1.4,4.6,4.786,4.786,0,0,1-4.2,2h-2.9l-.4-2.2h3.1a3.656,3.656,0,0,0,2.5-.9,3.043,3.043,0,0,0,1.1-2.4V359H715v3.2c0,1,.8,1.5,2.4,1.6v2.3Z" fill="#5045ab"/><path d="M726.7,361.9a4.454,4.454,0,0,1-1,3.1,3.473,3.473,0,0,1-2.9,1.3,4.376,4.376,0,0,1-2.5-.8,10.725,10.725,0,0,1-3.8.5v-2.2c1.3,0,2-.1,2.2-.4a5.393,5.393,0,0,0,.1-1.7c.1-3.1,1.4-4.6,4-4.6a3.388,3.388,0,0,1,2.9,1.5A5.183,5.183,0,0,1,726.7,361.9Zm-1.9-.1c0-1.6-.6-2.4-1.9-2.4s-2,.8-2,2.5c0,1.5.7,2.3,2,2.3C724.1,364.2,724.8,363.4,724.8,361.8Z" fill="#5045ab"/><path d="M460.7,362.4a3.693,3.693,0,0,1-1.1,2.7,3.857,3.857,0,0,1-2.8,1,3.631,3.631,0,0,1-2.8-1.2,4.172,4.172,0,0,1-1.1-2.9v-2.7h-.5a1.8,1.8,0,0,0-1.5.7,2.4,2.4,0,0,0-.6,1.5v10.1h-2.2v-9.9a5.331,5.331,0,0,1,1.1-3.4,4.156,4.156,0,0,1,3.3-1.3H457a2.93,2.93,0,0,1,3,1.6A7.8,7.8,0,0,1,460.7,362.4Zm-2.2-.5c0-1.2-.1-1.9-.4-2.1-.3-.3-1.3-.4-3.1-.5v3.1a1.382,1.382,0,0,0,.6,1.1,1.922,1.922,0,0,0,1.2.4C458,363.9,458.5,363.2,458.5,361.9Z" fill="#727272"/><path d="M471.1,366.3a5.166,5.166,0,0,1-1.7,3.8,5.7,5.7,0,0,1-3.9,1.6h-2.9l-.3-2.2h2.8a3.739,3.739,0,0,0,2.6-.9,3.1,3.1,0,0,0,1.1-2.5,7.921,7.921,0,0,1-4-.7,3.852,3.852,0,0,1-1.7-3.6c0-1.9.4-3.2,1.3-3.9a3.974,3.974,0,0,1,2.7-.7,3.337,3.337,0,0,1,3.4,2.1,14.288,14.288,0,0,1,.5,4.3v2.7Zm-2.2-2.5v-2.3c0-1.5-.6-2.2-1.7-2.2-.7,0-1.2.2-1.4.7a3.419,3.419,0,0,0-.3,1.7,1.8,1.8,0,0,0,1.1,1.8A4.494,4.494,0,0,0,468.9,363.8Z" fill="#727272"/><path d="M484.2,363.2a2.7,2.7,0,0,1-1,2.2,3.566,3.566,0,0,1-2.3.8H474l-.3-2.2h7.1q1.2,0,1.2-.9a1.136,1.136,0,0,0-.3-.8l-5-5.3,1.5-1.5,5,5.3A3.312,3.312,0,0,1,484.2,363.2Z" fill="#727272"/><path d="M503.7,366.1a3.694,3.694,0,0,1-2.1-.4,24.454,24.454,0,0,1-2.3-2,4.205,4.205,0,0,1-4.1,2.7,4.1,4.1,0,0,1-4.2-4.2c0-1.3.9-2.8,2.6-4.5l-.6-.7,1.5-1.5,6.7,7.1,1.1,1.1a2.81,2.81,0,0,0,1.5.3v2.1Zm-6.4-3.9a1.461,1.461,0,0,0-.4-1.2l-1.8-1.8-1.3,1.3a3.1,3.1,0,0,0-.7,1.7,1.816,1.816,0,0,0,.6,1.4,1.964,1.964,0,0,0,1.5.5,2.035,2.035,0,0,0,1.5-.6A1.486,1.486,0,0,0,497.3,362.2Z" fill="#727272"/><path d="M511.1,366.1h-.7a4.885,4.885,0,0,1-3.2-.9,4.1,4.1,0,0,1-1.4.8c-.3,0-1.3.1-2.9.1v-2.2h1.6c.7,0,1.2-.2,1.4-.6a3.221,3.221,0,0,0,.2-1.6v-9.9h2.2v10.3c0,.8.2,1.3.7,1.5a6.74,6.74,0,0,0,2.1.2v2.3Z" fill="#727272"/><path d="M523,361.8l-5.1,2.9a8.111,8.111,0,0,1-3.8,1.2c-.6.1-1.9.1-4,.2v-2.2h1.8a11.3,11.3,0,0,0,4.5-.9c.2-.1,1.6-.9,4.1-2.3-.2-.6-.7-.9-1.5-1.1-.2,0-2.1-.1-5.8-.1l-.3-2.2h5.5C521.4,357.2,523,358.7,523,361.8Z" fill="#727272"/><path d="M535.1,366.1a2.776,2.776,0,0,1-2.4-1.1,7.409,7.409,0,0,1-1.4,4.6,4.786,4.786,0,0,1-4.2,2h-2.9l-.4-2.2h3.1a3.656,3.656,0,0,0,2.5-.9,3.043,3.043,0,0,0,1.1-2.4V359h2.2v3.2c0,1,.8,1.5,2.4,1.6v2.3Z" fill="#727272"/><path d="M544.4,361.9a4.454,4.454,0,0,1-1,3.1,3.473,3.473,0,0,1-2.9,1.3,4.376,4.376,0,0,1-2.5-.8,10.725,10.725,0,0,1-3.8.5v-2.2c1.3,0,2-.1,2.2-.4a5.393,5.393,0,0,0,.1-1.7c.1-3.1,1.4-4.6,4-4.6a3.388,3.388,0,0,1,2.9,1.5A5.183,5.183,0,0,1,544.4,361.9Zm-2-.1c0-1.6-.6-2.4-1.9-2.4s-2,.8-2,2.5c0,1.5.7,2.3,2,2.3S542.4,363.4,542.4,361.8Z" fill="#727272"/><path d="M272.1,362.4a3.693,3.693,0,0,1-1.1,2.7,3.857,3.857,0,0,1-2.8,1,3.631,3.631,0,0,1-2.8-1.2,4.172,4.172,0,0,1-1.1-2.9v-2.7h-.5a1.8,1.8,0,0,0-1.5.7,2.4,2.4,0,0,0-.6,1.5v10.1h-2.2v-9.9a5.331,5.331,0,0,1,1.1-3.4,4.156,4.156,0,0,1,3.3-1.3h4.5a2.93,2.93,0,0,1,3,1.6A6.8,6.8,0,0,1,272.1,362.4Zm-2.1-.5c0-1.2-.1-1.9-.4-2.1-.3-.3-1.3-.4-3.1-.5v3.1a1.382,1.382,0,0,0,.6,1.1,1.922,1.922,0,0,0,1.2.4C269.4,363.9,270,363.2,270,361.9Z" fill="#727272"/><path d="M284.3,366.1h-1.5a5.2,5.2,0,0,1-1.6,4,5.577,5.577,0,0,1-4.1,1.6h-2.9l-.3-2.2h2.8a3.739,3.739,0,0,0,2.6-.9,3.1,3.1,0,0,0,1.1-2.5,8.726,8.726,0,0,1-4.1-.8,3.852,3.852,0,0,1-1.7-3.6c0-1.9.4-3.2,1.3-3.9a4.257,4.257,0,0,1,2.6-.7,3.466,3.466,0,0,1,3.6,2.2,17.834,17.834,0,0,1,.6,4.5h1.5v2.3Zm-3.8-2.2v-2.1a2.934,2.934,0,0,0-.4-1.6,1.6,1.6,0,0,0-1.4-.8c-.7,0-1.2.2-1.4.7a3.419,3.419,0,0,0-.3,1.7,1.749,1.749,0,0,0,1.2,1.8A5.978,5.978,0,0,0,280.5,363.9Z" fill="#727272"/><path d="M301.2,362.5a4.551,4.551,0,0,1-.8,2.7,2.767,2.767,0,0,1-2.4,1.1,4.322,4.322,0,0,1-3-1.5,3.59,3.59,0,0,1-2.7,1.5,4.1,4.1,0,0,1-3-1.8,3.954,3.954,0,0,1-2.9,1.5h-2.8v-2.2h2.7c1,0,1.5-.6,1.5-1.7V359H290v3.3a1.612,1.612,0,0,0,.6,1.3,2.168,2.168,0,0,0,1.4.5c1,0,1.5-.5,1.5-1.4V359h2.2v3.3a1.612,1.612,0,0,0,.6,1.3,2.168,2.168,0,0,0,1.4.5c1,0,1.6-.5,1.6-1.4V359h2.2v3.5Z" fill="#727272"/><path d="M320.9,366.1a3.694,3.694,0,0,1-2.1-.4,24.454,24.454,0,0,1-2.3-2,4.205,4.205,0,0,1-4.1,2.7,4.1,4.1,0,0,1-4.2-4.2c0-1.3.9-2.8,2.6-4.5l-.6-.7,1.5-1.5,6.7,7.1,1.1,1.1a2.81,2.81,0,0,0,1.5.3v2.1Zm-6.3-3.9a1.461,1.461,0,0,0-.4-1.2l-1.8-1.8-1.3,1.3a3.1,3.1,0,0,0-.7,1.7,1.816,1.816,0,0,0,.6,1.4,1.964,1.964,0,0,0,1.5.5,2.035,2.035,0,0,0,1.5-.6A1.486,1.486,0,0,0,314.6,362.2Z" fill="#727272"/><path d="M328.3,366.1h-.7a4.885,4.885,0,0,1-3.2-.9,4.1,4.1,0,0,1-1.4.8c-.3,0-1.3.1-2.9.1v-2.2h1.6c.7,0,1.2-.2,1.4-.6a3.221,3.221,0,0,0,.2-1.6v-9.9h2.2v10.3c0,.8.2,1.3.7,1.5a6.74,6.74,0,0,0,2.1.2v2.3Z" fill="#727272"/><path d="M340.2,361.8l-5.1,2.9a8.111,8.111,0,0,1-3.8,1.2c-.6.1-1.9.1-4,.2v-2.2h1.8a11.3,11.3,0,0,0,4.5-.9c.2-.1,1.6-.9,4.1-2.3-.2-.6-.7-.9-1.5-1.1-.2,0-2.1-.1-5.8-.1l-.3-2.2h5.5C338.7,357.2,340.2,358.7,340.2,361.8Z" fill="#727272"/><path d="M352.3,366.1a2.775,2.775,0,0,1-2.4-1.1,7.41,7.41,0,0,1-1.4,4.6,4.786,4.786,0,0,1-4.2,2h-2.9l-.4-2.2h3.1a3.656,3.656,0,0,0,2.5-.9,3.043,3.043,0,0,0,1.1-2.4V359h2.2v3.2c0,1,.8,1.5,2.4,1.6v2.3Z" fill="#727272"/><path d="M361.6,361.9a4.454,4.454,0,0,1-1,3.1,3.473,3.473,0,0,1-2.9,1.3,4.376,4.376,0,0,1-2.5-.8,10.725,10.725,0,0,1-3.8.5v-2.2c1.3,0,2-.1,2.2-.4a5.392,5.392,0,0,0,.1-1.7c.1-3.1,1.4-4.6,4-4.6a3.388,3.388,0,0,1,2.9,1.5A5.183,5.183,0,0,1,361.6,361.9Zm-1.9-.1c0-1.6-.6-2.4-1.9-2.4s-2,.8-2,2.5c0,1.5.7,2.3,2,2.3C359,364.2,359.7,363.4,359.7,361.8Z" fill="#727272"/></g></svg>