<svg xmlns="http://www.w3.org/2000/svg" xmlns:xlink="http://www.w3.org/1999/xlink" width="570.05" height="218.649" viewBox="0 0 570.05 218.649"><defs><linearGradient id="a" y1="0.5" x2="1" y2="0.5" gradientUnits="objectBoundingBox"><stop offset="0" stop-color="#c9dae9"/><stop offset="1" stop-color="#cecce0"/></linearGradient><linearGradient id="b" y1="0.5" x2="1" y2="0.5" gradientUnits="objectBoundingBox"><stop offset="0" stop-color="#baebcf"/><stop offset="1" stop-color="#a3e2f2"/></linearGradient><linearGradient id="c" y1="0.5" x2="1" y2="0.5" gradientUnits="objectBoundingBox"><stop offset="0" stop-color="#00aedd"/><stop offset="0.5" stop-color="#2879c4"/><stop offset="1" stop-color="#5045ab"/></linearGradient><linearGradient id="d" y1="0.5" x2="1" y2="0.5" gradientUnits="objectBoundingBox"><stop offset="0.5" stop-color="#848484"/><stop offset="0.6" stop-color="#3fc977"/><stop offset="1" stop-color="#00aedd"/></linearGradient></defs><g transform="translate(-45.3 -86.1)"><g transform="translate(45.3 86.1)"><path d="M338.115,100.1H269.1l-34.4,59.728,34.4,59.728h69.014l34.4-59.728Z" transform="translate(165.032 -70.553)" fill="url(#a)"/><path d="M251.115,100.1H182.1l-34.4,59.728,34.4,59.728h69.014l34.4-59.728Z" transform="translate(68.417 -70.553)" fill="url(#b)"/><path d="M164.115,100.1H95.1L60.7,159.828l34.4,59.728h69.014l34.4-59.728Z" transform="translate(-28.198 -70.553)" fill="#bcbcbc"/><path d="M454.972,263.594H363.165a9.05,9.05,0,0,1-8.02-4.643l-29.758-51.708a9.267,9.267,0,0,1,16.04-9.286l27.226,47.065H449.7l40.522-70.069L449.7,104.884H368.652L279.167,258.951a9.05,9.05,0,0,1-8.02,4.643H179.339a9.05,9.05,0,0,1-8.02-4.643L141.35,207.033a9.267,9.267,0,1,1,16.04-9.286l27.226,47.276h81.044L355.145,90.743a9.05,9.05,0,0,1,8.02-4.643h91.807a9.05,9.05,0,0,1,8.02,4.643l45.8,79.355a9.146,9.146,0,0,1,0,9.286l-45.8,79.566A9.3,9.3,0,0,1,454.972,263.594Z" transform="translate(59.993 -86.1)" fill="url(#c)"/><path d="M192.192,263.594H100.384a9.05,9.05,0,0,1-8.02-4.643L46.566,179.6a9.146,9.146,0,0,1,0-9.286l45.8-79.355a9.05,9.05,0,0,1,8.02-4.643h91.807a9.05,9.05,0,0,1,8.02,4.643l29.758,51.708a9.267,9.267,0,0,1-16.04,9.286L186.7,104.884H105.872L65.35,174.953l40.522,70.069h81.044L276.4,90.743a9.05,9.05,0,0,1,8.02-4.643h91.6a9.05,9.05,0,0,1,8.02,4.643l29.969,51.919a9.267,9.267,0,0,1-16.04,9.286l-27.226-47.276H289.7L200.212,258.951A9.05,9.05,0,0,1,192.192,263.594Z" transform="translate(-45.3 -86.1)" fill="url(#d)"/></g><g transform="translate(477.322 136.541)"><path d="M276.067,155.422h0a13.818,13.818,0,0,1-10.553-4.221c-5.487-6.332-4.854-17.306-4.643-18.995v-.422c.633-10.975,8.02-14.985,14.563-14.985h.633c6.754,0,14.14,4.01,14.774,15.2h0c0,.211,1.266,12.452-4.643,19.206-2.321,2.744-5.7,4.221-10.13,4.221ZM265.092,132.84c-.211,3.166-.211,11.4,3.588,15.618a9.061,9.061,0,0,0,7.176,2.955,9.525,9.525,0,0,0,7.387-2.955c3.8-4.221,4.01-12.241,3.588-15.407h0v-.633c-.422-10.131-7.387-11.186-10.553-11.186h-.633c-2.955,0-9.919,1.055-10.553,11.4Z" transform="translate(-238.078 -102.448)" fill="#055777"/><path d="M283.325,161.543a37.644,37.644,0,0,1-28.492-12.874,1.916,1.916,0,0,1-.633-1.477v-.422a2.541,2.541,0,0,1,1.477-2.111c12.241-4.01,16.04-8.653,17.306-11.186a2.094,2.094,0,0,1,2.744-1.055,24.011,24.011,0,0,0,6.965,1.477h.211l.211,2.111V133.9a18.454,18.454,0,0,0,7.809-1.688,2.016,2.016,0,0,1,2.744.844c1.477,2.955,5.7,8.231,17.1,11.608a2.162,2.162,0,0,1,1.266,1.055,2.33,2.33,0,0,1,0,1.688l-.211.633c0,.211-.211.422-.422.633A36.765,36.765,0,0,1,283.325,161.543ZM259.9,147.825a33.4,33.4,0,0,0,23.427,9.5,34.531,34.531,0,0,0,23.427-9.286c-8.864-3.377-13.3-7.809-15.618-10.975a23.345,23.345,0,0,1-7.809,1.477h-.633a24.1,24.1,0,0,1-6.965-1.055C273.617,140.438,269.185,144.448,259.9,147.825Z" transform="translate(-245.336 -85.565)" fill="#055777"/><path d="M281.41,142.963a1.916,1.916,0,0,1-1.477-.633,2.28,2.28,0,0,1-.633-1.477,1.916,1.916,0,0,1,.633-1.477,4080.247,4080.247,0,0,0,.844-.422c.211,0,.211-.211.422-.211a1.7,1.7,0,0,1,1.9.633,1.916,1.916,0,0,1,.633,1.477v.422c0,.211,0,.211-.211.422,0,.211-.211.211-.211.422s-.211.211-.211.422A4.965,4.965,0,0,1,281.41,142.963Z" transform="translate(-217.462 -78.17)" fill="#055777"/><path d="M317.959,167.828a2.337,2.337,0,0,1-.844-2.955h0a2.337,2.337,0,0,1,2.955-.844h0a2.337,2.337,0,0,1,.844,2.955h0a2.216,2.216,0,0,1-1.9,1.055h0A.928.928,0,0,1,317.959,167.828Zm-63.316-1.477a2.135,2.135,0,0,1,.844-2.955h0a2.136,2.136,0,0,1,2.955.844h0a2.136,2.136,0,0,1-.844,2.955h0a1.9,1.9,0,0,1-1.055.211h0A2.518,2.518,0,0,1,254.643,166.351Zm67.114-5.909a2.418,2.418,0,0,1-1.477-2.744h0a2.418,2.418,0,0,1,2.744-1.477h0a2.418,2.418,0,0,1,1.477,2.744h0a2.1,2.1,0,0,1-2.111,1.477h0A.4.4,0,0,1,321.758,160.441Zm-70.491-2.322a2.17,2.17,0,0,1,1.477-2.533h0a2.17,2.17,0,0,1,2.533,1.477h0A2.17,2.17,0,0,1,253.8,159.6h-.633C252.533,159.808,251.688,159.175,251.266,158.12Zm72.391-5.7a2.015,2.015,0,0,1-1.9-2.322h0a2.015,2.015,0,0,1,2.322-1.9h0a2.015,2.015,0,0,1,1.9,2.322h0a2.3,2.3,0,0,1-2.322,1.9ZM250,149.467a1.994,1.994,0,0,1,2.111-2.111h0a1.994,1.994,0,0,1,2.111,2.111h0a2.115,2.115,0,0,1-2.111,2.111h0A2.115,2.115,0,0,1,250,149.467Zm71.335-7.176a1.977,1.977,0,0,1,1.688-2.322h0a2.315,2.315,0,0,1,2.533,1.688h0a1.977,1.977,0,0,1-1.688,2.322h-.422A1.889,1.889,0,0,1,321.335,142.291Zm-69.014.844a2.189,2.189,0,0,1-1.688-2.533h0a2.042,2.042,0,0,1,2.533-1.688h0a2.189,2.189,0,0,1,1.688,2.533h0a2.055,2.055,0,0,1-2.111,1.688h0C252.744,143.346,252.533,143.135,252.322,143.135Zm66.9-8.231a2.094,2.094,0,0,1,1.055-2.744h0a2.094,2.094,0,0,1,2.744,1.055h0a2.094,2.094,0,0,1-1.055,2.744h0a1.269,1.269,0,0,1-.844.211h0A1.846,1.846,0,0,1,319.225,134.9Zm-64.793.211a2.094,2.094,0,0,1-1.055-2.744h0a2.094,2.094,0,0,1,2.744-1.055h0a2.094,2.094,0,0,1,1.055,2.744h0a2.028,2.028,0,0,1-1.9,1.266h0A1.269,1.269,0,0,1,254.432,135.115Zm60.783-6.965h0a2.27,2.27,0,0,1,.422-2.955h0a2.27,2.27,0,0,1,2.955.422h0a2.232,2.232,0,0,1-.422,2.955h0a3,3,0,0,1-1.266.422h0A2.606,2.606,0,0,1,315.215,128.15Zm-56.984-.422a2.27,2.27,0,0,1-.422-2.955h0a2.27,2.27,0,0,1,2.955-.422h0a2.27,2.27,0,0,1,.422,2.955h0a1.919,1.919,0,0,1-1.688.844h0A1.551,1.551,0,0,1,258.231,127.728Zm51.708-5.487a2.051,2.051,0,0,1-.211-2.955h0a2.051,2.051,0,0,1,2.955-.211h0a2.052,2.052,0,0,1,.211,2.955h0a2.606,2.606,0,0,1-1.688.844h0A1.824,1.824,0,0,1,309.939,122.241Zm-46.22-.844a2.039,2.039,0,0,1,.211-2.955h0a2.039,2.039,0,0,1,2.955.211h0a2.243,2.243,0,0,1-.211,2.955h0a1.551,1.551,0,0,1-1.266.422h0A1.414,1.414,0,0,1,263.718,121.4ZM303.4,118.02a2.136,2.136,0,0,1-.844-2.955h0a1.906,1.906,0,0,1,2.744-.844h0a1.947,1.947,0,0,1,.844,2.744h0a1.846,1.846,0,0,1-1.9,1.055h0C304.029,118.231,303.818,118.231,303.4,118.02Zm-32.924-1.477a2.094,2.094,0,0,1,1.055-2.744h0a2.094,2.094,0,0,1,2.744,1.055h0a2.094,2.094,0,0,1-1.055,2.744h0a1.269,1.269,0,0,1-.844.211h0A2.028,2.028,0,0,1,270.472,116.543Zm25.748-1.266a2,2,0,0,1-1.477-2.533h0a2,2,0,0,1,2.533-1.477h0a2,2,0,0,1,1.477,2.533h0a2.273,2.273,0,0,1-2.111,1.688h0C296.431,115.276,296.431,115.276,296.22,115.276Zm-18.15-1.9a2.136,2.136,0,0,1,1.688-2.533h0a2.137,2.137,0,0,1,2.533,1.688h0a2.137,2.137,0,0,1-1.688,2.533h-.422A2.055,2.055,0,0,1,278.07,113.377Zm10.342.844a2.27,2.27,0,0,1-2.111-2.111h0A2.27,2.27,0,0,1,288.411,110h0a2.27,2.27,0,0,1,2.111,2.111h0a1.994,1.994,0,0,1-2.111,2.111Z" transform="translate(-250 -110)" fill="#055777"/><path d="M256.51,142.621a2.089,2.089,0,0,1-1.477-3.588,2.04,2.04,0,0,1,2.955,0c.211.211.422.422.422.633s.211.633.211.844a2.164,2.164,0,0,1-2.111,2.111Z" transform="translate(-245.114 -78.461)" fill="#055777"/></g><g transform="translate(291.597 136.541)"><g transform="translate(0)"><g transform="translate(15.196 19.417)"><path d="M176.587,144.315a7.478,7.478,0,0,1-7.387-7.387v-6.965l6.754-10.764h12.241l-4.432,11.819v5.909A7.166,7.166,0,0,1,176.587,144.315Zm-3.166-13.085v5.7a3.166,3.166,0,1,0,6.332,0v-6.754l2.533-6.754h-3.8Z" transform="translate(-169.2 -119.2)" fill="#055777"/><path d="M181.487,144.315a7.478,7.478,0,0,1-7.387-7.387v-6.754l4.221-10.975h10.553v17.728A7.341,7.341,0,0,1,181.487,144.315Zm-3.166-13.3v5.909a3.166,3.166,0,1,0,6.332,0V123.421h-3.377Z" transform="translate(-163.758 -119.2)" fill="#055777"/><path d="M193.719,144.315a7.478,7.478,0,0,1-7.387-7.387v-5.909L181.9,119.2h12.241l6.754,10.764v6.965A7.042,7.042,0,0,1,193.719,144.315Zm-5.7-20.894,2.533,6.754v6.754a3.166,3.166,0,1,0,6.332,0v-5.7l-4.854-7.809Z" transform="translate(-155.096 -119.2)" fill="#055777"/><path d="M186.387,144.315A7.478,7.478,0,0,1,179,136.928V119.2h10.553l4.221,10.975v6.754A7.213,7.213,0,0,1,186.387,144.315Zm-2.955-20.894v13.507a3.166,3.166,0,1,0,6.332,0v-5.909l-2.744-7.6h-3.588Z" transform="translate(-158.317 -119.2)" fill="#055777"/></g><path d="M190.772,164.879h-2.111V150.105H182.33l.211,13.929-2.744-.844a30.468,30.468,0,0,1-8.442-3.8l-1.055-.633V131.111h4.221v25.326a29.9,29.9,0,0,0,3.8,1.688l-.211-12.241h14.774v14.774a34.574,34.574,0,0,0,15.2-4.643V129H212.3v29.125l-1.055.633A36.479,36.479,0,0,1,190.772,164.879Z" transform="translate(-152.783 -88.9)" fill="#055777"/><path d="M193.411,142.921a1.916,1.916,0,0,1-1.477-.633,2.28,2.28,0,0,1-.633-1.477,1.269,1.269,0,0,1,.211-.844c0-.211.211-.422.422-.633a2.04,2.04,0,0,1,2.955,0c.211.211.422.422.422.633a1.269,1.269,0,0,1,.211.844,2.164,2.164,0,0,1-2.111,2.111Z" transform="translate(-129.462 -78.128)" fill="#055777"/><path d="M229.959,167.828a2.337,2.337,0,0,1-.844-2.955h0a2.337,2.337,0,0,1,2.955-.844h0a2.337,2.337,0,0,1,.844,2.955h0a2.216,2.216,0,0,1-1.9,1.055h0A.928.928,0,0,1,229.959,167.828Zm-63.315-1.477a2.135,2.135,0,0,1,.844-2.955h0a2.135,2.135,0,0,1,2.955.844h0a2.135,2.135,0,0,1-.844,2.955h0a1.9,1.9,0,0,1-1.055.211h0A2.518,2.518,0,0,1,166.643,166.351Zm67.114-5.909a2.418,2.418,0,0,1-1.477-2.744h0a2.418,2.418,0,0,1,2.744-1.477h0a2.418,2.418,0,0,1,1.477,2.744h0a2.1,2.1,0,0,1-2.111,1.477h0A.4.4,0,0,1,233.758,160.441Zm-70.491-2.322h0a2.17,2.17,0,0,1,1.477-2.533h0a2.17,2.17,0,0,1,2.533,1.477h0A2,2,0,0,1,165.8,159.6h-.633C164.533,159.808,163.688,159.175,163.266,158.12Zm72.391-5.7a2.015,2.015,0,0,1-1.9-2.322h0a2.015,2.015,0,0,1,2.322-1.9h0a2.015,2.015,0,0,1,1.9,2.322h0a2.3,2.3,0,0,1-2.322,1.9ZM162,149.467h0a1.994,1.994,0,0,1,2.111-2.111h0a1.994,1.994,0,0,1,2.111,2.111h0a2.115,2.115,0,0,1-2.111,2.111h0A2.115,2.115,0,0,1,162,149.467Zm71.335-7.176a1.977,1.977,0,0,1,1.688-2.322h0a2.315,2.315,0,0,1,2.533,1.688h0a1.977,1.977,0,0,1-1.688,2.322h-.422A1.889,1.889,0,0,1,233.335,142.291Zm-69.014.844a2.189,2.189,0,0,1-1.688-2.533h0a2.042,2.042,0,0,1,2.533-1.688h0a2.189,2.189,0,0,1,1.688,2.533h0a2.055,2.055,0,0,1-2.11,1.688h0C164.744,143.346,164.533,143.135,164.322,143.135Zm66.9-8.231h0a2.094,2.094,0,0,1,1.055-2.744h0a2.094,2.094,0,0,1,2.744,1.055h0a2.094,2.094,0,0,1-1.055,2.744h0a1.269,1.269,0,0,1-.844.211h0A1.846,1.846,0,0,1,231.225,134.9Zm-64.793.211a2.094,2.094,0,0,1-1.055-2.744h0a2.094,2.094,0,0,1,2.744-1.055h0a2.094,2.094,0,0,1,1.055,2.744h0a2.028,2.028,0,0,1-1.9,1.266h0A1.269,1.269,0,0,1,166.432,135.115Zm60.783-6.965h0a2.232,2.232,0,0,1,.422-2.955h0a2.27,2.27,0,0,1,2.955.422h0a2.232,2.232,0,0,1-.422,2.955h0a3,3,0,0,1-1.266.422h0A2.605,2.605,0,0,1,227.215,128.15Zm-56.984-.422a2.27,2.27,0,0,1-.422-2.955h0a2.27,2.27,0,0,1,2.955-.422h0a2.27,2.27,0,0,1,.422,2.955h0a1.919,1.919,0,0,1-1.688.844h0A1.551,1.551,0,0,1,170.231,127.728Zm51.708-5.487a2.051,2.051,0,0,1-.211-2.955h0a2.051,2.051,0,0,1,2.955-.211h0a2.051,2.051,0,0,1,.211,2.955h0a2.605,2.605,0,0,1-1.688.844h0A1.824,1.824,0,0,1,221.939,122.241Zm-46.22-.844a2.039,2.039,0,0,1,.211-2.955h0a2.039,2.039,0,0,1,2.955.211h0a2.039,2.039,0,0,1-.211,2.955h0a3,3,0,0,1-1.266.422h0A1.414,1.414,0,0,1,175.718,121.4ZM215.4,118.02a2.136,2.136,0,0,1-.844-2.955h0a1.906,1.906,0,0,1,2.744-.844h0a1.947,1.947,0,0,1,.844,2.744h0a1.846,1.846,0,0,1-1.9,1.055h0C216.029,118.231,215.818,118.231,215.4,118.02Zm-32.924-1.477a2.094,2.094,0,0,1,1.055-2.744h0a2.094,2.094,0,0,1,2.744,1.055h0a2.094,2.094,0,0,1-1.055,2.744h0a1.269,1.269,0,0,1-.844.211h0A2.028,2.028,0,0,1,182.472,116.543Zm25.748-1.266a2,2,0,0,1-1.477-2.533h0a2,2,0,0,1,2.533-1.477h0a2,2,0,0,1,1.477,2.533h0a2.055,2.055,0,0,1-2.111,1.688h0C208.431,115.276,208.431,115.276,208.22,115.276Zm-18.15-1.9a2.136,2.136,0,0,1,1.688-2.533h0a2.136,2.136,0,0,1,2.533,1.688h0a2.136,2.136,0,0,1-1.688,2.533h-.422A2.055,2.055,0,0,1,190.07,113.377Zm10.342.844a2.115,2.115,0,0,1-2.111-2.111h0A2.27,2.27,0,0,1,200.411,110h0a2.115,2.115,0,0,1,2.111,2.111h0a1.994,1.994,0,0,1-2.111,2.111Z" transform="translate(-162 -110)" fill="#055777"/><path d="M168.51,142.593a1.269,1.269,0,0,1-.844-.211c-.211,0-.422-.211-.633-.422l-.211-.211a.737.737,0,0,1-.211-.422c0-.211-.211-.211-.211-.422v-.844c0-.211,0-.211.211-.422,0-.211,0-.211.211-.422a.207.207,0,0,1,.211-.211c.211-.211.422-.422.633-.422a2.312,2.312,0,0,1,1.688,0c.211.211.422.211.633.422a2.04,2.04,0,0,1,0,2.955c-.211.211-.422.422-.633.422A1.269,1.269,0,0,1,168.51,142.593Z" transform="translate(-157.114 -78.434)" fill="#055777"/></g></g><g transform="translate(108.404 136.541)"><path d="M108.707,134.622h-11.4a1.994,1.994,0,0,1-2.111-2.111v-11.4a1.846,1.846,0,0,1,1.266-1.9,1.927,1.927,0,0,1,2.322.422l11.4,11.4a1.927,1.927,0,0,1,.422,2.322A2.426,2.426,0,0,1,108.707,134.622ZM99.421,130.4h4.221l-4.221-4.221Z" transform="translate(-52.99 -100.01)" fill="#757575"/><path d="M110.5,131.721H89.611a2.111,2.111,0,0,1,0-4.221H110.5a2.111,2.111,0,1,1,0,4.221Z" transform="translate(-61.541 -90.566)" fill="#757575"/><path d="M110.5,136.221H89.611a2.111,2.111,0,0,1,0-4.221H110.5a2.111,2.111,0,1,1,0,4.221Z" transform="translate(-61.541 -85.569)" fill="#757575"/><path d="M110.5,140.721H89.611a2.111,2.111,0,0,1,0-4.221H110.5a2.111,2.111,0,1,1,0,4.221Z" transform="translate(-61.541 -80.571)" fill="#757575"/><path d="M102.55,175.984a36.18,36.18,0,0,1-16.884-4.01,2.426,2.426,0,0,1-1.266-1.9V121.111A1.994,1.994,0,0,1,86.511,119H109.3a1.916,1.916,0,0,1,1.477.633l11.4,11.4a1.916,1.916,0,0,1,.633,1.477v36.512a2.216,2.216,0,0,1-1.055,1.9A38.436,38.436,0,0,1,102.55,175.984Zm-13.929-7.176a35.1,35.1,0,0,0,13.929,2.955,36.079,36.079,0,0,0,16.04-4.01v-34.4l-10.13-10.13H88.832v45.587Z" transform="translate(-64.983 -100.005)" fill="#757575"/><path d="M107.122,142.463H106.7c-.211,0-.211,0-.422-.211-.211,0-.211-.211-.422-.211s-.211-.211-.422-.211l-.211-.211c0-.211-.211-.211-.211-.422s-.211-.211-.211-.422v-.422a1.916,1.916,0,0,1,.633-1.477,6527.829,6527.829,0,0,1,.844-.422c.211,0,.211,0,.422-.211a1.7,1.7,0,0,1,1.9.633,1.916,1.916,0,0,1,.633,1.477v.422c0,.211,0,.211-.211.422,0,.211,0,.211-.211.422l-.211.211-.211.211c-.211,0-.211.211-.422.211s-.211,0-.422.211Z" transform="translate(-42.329 -78.725)" fill="#757575"/><path d="M80.476,167.617a2.272,2.272,0,0,1,.633-2.955h0a2.272,2.272,0,0,1,2.955.633h0a2.272,2.272,0,0,1-.633,2.955h0a1.9,1.9,0,0,1-1.055.211h0A1.7,1.7,0,0,1,80.476,167.617Zm63.1-.844a2.136,2.136,0,0,1-.844-2.955h0a2.136,2.136,0,0,1,2.955-.844h0a2.136,2.136,0,0,1,.844,2.955h0a2.216,2.216,0,0,1-1.9,1.055h0A1.9,1.9,0,0,1,143.581,166.773ZM76.888,159.6h0a2.2,2.2,0,0,1,1.266-2.744h0A2.2,2.2,0,0,1,80.9,158.12h0a2.2,2.2,0,0,1-1.266,2.744H79A1.756,1.756,0,0,1,76.888,159.6Zm70.28-.422a2,2,0,0,1-1.477-2.533h0a2.17,2.17,0,0,1,2.533-1.477h0A2,2,0,0,1,149.7,157.7h0a2.055,2.055,0,0,1-2.111,1.688h0C147.591,159.175,147.38,159.175,147.169,159.175ZM75.2,150.944a2.473,2.473,0,0,1,1.9-2.322h0a2.3,2.3,0,0,1,2.322,1.9h0a2.3,2.3,0,0,1-1.9,2.322h-.211A1.949,1.949,0,0,1,75.2,150.944Zm73.657,0a2.27,2.27,0,0,1-2.111-2.111h0a2.115,2.115,0,0,1,2.111-2.111h0a2.115,2.115,0,0,1,2.111,2.111h0a2.115,2.115,0,0,1-2.111,2.111ZM77.1,144.612a1.939,1.939,0,0,1-1.688-2.322h0a2.091,2.091,0,0,1,2.322-1.688h0a1.939,1.939,0,0,1,1.688,2.322h0a2.244,2.244,0,0,1-2.111,1.9h0C77.522,144.612,77.311,144.612,77.1,144.612Zm69.014-3.588h0a2.136,2.136,0,0,1,1.688-2.533h0a2.136,2.136,0,0,1,2.533,1.688h0a2.137,2.137,0,0,1-1.688,2.533h-.422A2.055,2.055,0,0,1,146.113,141.025ZM79,136.381a1.936,1.936,0,0,1-1.055-2.744h0a2.2,2.2,0,0,1,2.744-1.266h0a2.2,2.2,0,0,1,1.266,2.744h0a2.028,2.028,0,0,1-1.9,1.266h0C79.421,136.592,79.21,136.592,79,136.381Zm64.582-2.744a2.094,2.094,0,0,1,1.055-2.744h0a2.094,2.094,0,0,1,2.744,1.055h0a2.094,2.094,0,0,1-1.055,2.744h0a1.269,1.269,0,0,1-.844.211h0A2.028,2.028,0,0,1,143.581,133.638Zm-60.994-4.643a2.064,2.064,0,0,1-.422-2.955h0a2.232,2.232,0,0,1,2.955-.422h0a1.893,1.893,0,0,1,.422,2.955h0a1.919,1.919,0,0,1-1.688.844h0A1.784,1.784,0,0,1,82.587,128.995Zm56.773-1.9a2.064,2.064,0,0,1,.422-2.955h0a2.064,2.064,0,0,1,2.955.422h0a2.064,2.064,0,0,1-.422,2.955h0a3,3,0,0,1-1.266.422h0A4.242,4.242,0,0,1,139.36,127.1Zm-51.708-4.643a2.039,2.039,0,0,1,.211-2.955h0a2.051,2.051,0,0,1,2.955.211h0a2.051,2.051,0,0,1-.211,2.955h0a1.916,1.916,0,0,1-1.477.633h0A5.291,5.291,0,0,1,87.652,122.452Zm46.22-1.055a2.27,2.27,0,0,1-.422-2.955h0a2.27,2.27,0,0,1,2.955-.422h0a2.27,2.27,0,0,1,.422,2.955h0a1.919,1.919,0,0,1-1.688.844h0C134.717,122.03,134.294,121.819,133.872,121.4Zm-39.678-4.01a2.136,2.136,0,0,1,.844-2.955h0a2.136,2.136,0,0,1,2.955.844h0a2.135,2.135,0,0,1-.844,2.955h0a1.582,1.582,0,0,1-1.055.211h0A2.216,2.216,0,0,1,94.195,117.387Zm33.135,0h0a2.094,2.094,0,0,1-1.055-2.744h0a2.094,2.094,0,0,1,2.744-1.055h0a2.094,2.094,0,0,1,1.055,2.744h0a2.028,2.028,0,0,1-1.9,1.266h0A1.269,1.269,0,0,1,127.33,117.387ZM101.792,113.8a2.17,2.17,0,0,1,1.477-2.533h0a2.17,2.17,0,0,1,2.533,1.477h0a2.17,2.17,0,0,1-1.477,2.533h-.633A1.644,1.644,0,0,1,101.792,113.8Zm18.15,1.055a2.189,2.189,0,0,1-1.688-2.533h0a2.189,2.189,0,0,1,2.533-1.688h0a2.189,2.189,0,0,1,1.688,2.533h0a2.055,2.055,0,0,1-2.111,1.688h-.422Zm-9.919-2.744A2.115,2.115,0,0,1,112.134,110h0a2.115,2.115,0,0,1,2.111,2.111h0a2.115,2.115,0,0,1-2.111,2.111h0A1.994,1.994,0,0,1,110.023,112.111Z" transform="translate(-75.2 -110)" fill="#757575"/><path d="M82.111,143.093a1.269,1.269,0,0,1-.844-.211c-.211,0-.422-.211-.633-.422s-.422-.422-.422-.633a1.794,1.794,0,0,1,0-1.688c0-.211.211-.422.422-.633s.422-.422.633-.422a2.33,2.33,0,0,1,1.688,0c.211,0,.422.211.633.422s.422.422.422.633a1.794,1.794,0,0,1,0,1.688c0,.211-.211.422-.422.633s-.422.422-.633.422A1.6,1.6,0,0,1,82.111,143.093Z" transform="translate(-69.87 -77.878)" fill="#757575"/></g><g transform="translate(94.053 284.488)"><g transform="translate(373.772)"><path d="M259.852,194.129a5.749,5.749,0,0,1-1.477,4.221,5.4,5.4,0,0,1-4.01,1.688h-3.377a5.285,5.285,0,0,1-3.8-1.688,5.766,5.766,0,0,1-1.688-4.01V189.7h2.322v4.854a2.916,2.916,0,0,0,1.266,2.322,3.364,3.364,0,0,0,2.533.844h2.955a3.174,3.174,0,0,0,2.322-.844,3.389,3.389,0,0,0,1.055-2.322V180.2h2.322v13.929Z" transform="translate(-245.5 -179.989)" fill="#5045ab"/><path d="M262.164,191.986a5.415,5.415,0,0,1-5.7,5.276h-2.955l-.211-2.111h2.744a3.364,3.364,0,0,0,2.533-.844,3.5,3.5,0,0,0,1.055-2.533c-1.9,0-3.166-.211-4.01-.844a3.966,3.966,0,0,1-1.688-3.588,5.373,5.373,0,0,1,1.266-4.01,4.789,4.789,0,0,1,2.744-.633,3.256,3.256,0,0,1,3.377,2.111,11.166,11.166,0,0,1,.422,4.221v2.955Zm-2.322-2.533v-2.322c0-1.477-.633-2.111-1.688-2.111a1.643,1.643,0,0,0-1.477.633,3.627,3.627,0,0,0-.211,1.688,2.216,2.216,0,0,0,1.055,1.9A6.564,6.564,0,0,0,259.843,189.454Z" transform="translate(-236.838 -177.213)" fill="#5045ab"/><path d="M261.41,194.551H259.3V180.2h2.111Z" transform="translate(-230.175 -179.989)" fill="#5045ab"/><path d="M277.163,192.553a4.54,4.54,0,0,1-2.111-.422c-.211-.211-1.055-.844-2.322-2.111a4.328,4.328,0,0,1-4.01,2.744,3.541,3.541,0,0,1-2.955-1.266,5.3,5.3,0,0,1-1.266-2.955q0-1.9,2.533-4.432l-.633-.633L267.877,182l6.754,7.176,1.055,1.055c.211.211.844.211,1.477.422v1.9Zm-6.331-4.01a1.784,1.784,0,0,0-.422-1.266l-1.688-1.688-1.266,1.266a2.806,2.806,0,0,0-.633,1.688,2.09,2.09,0,0,0,3.588,1.477A1.781,1.781,0,0,0,270.832,188.543Z" transform="translate(-224.4 -177.99)" fill="#5045ab"/><path d="M278.331,194.663H277.7a4.381,4.381,0,0,1-3.166-.844,12.1,12.1,0,0,1-1.477.844H270.1v-2.322h1.688a1.643,1.643,0,0,0,1.477-.633c.211-.211.211-.844.211-1.688V180.1H275.8v10.341c0,.844.211,1.266.633,1.477a12.338,12.338,0,0,0,2.111.211v2.533Z" transform="translate(-218.181 -180.1)" fill="#5045ab"/><path d="M286.374,187.232l-5.065,2.955a10.087,10.087,0,0,1-3.8,1.266c-.633,0-1.9.211-4.01.211v-2.322h1.688a9.79,9.79,0,0,0,4.432-.844c.211-.211,1.688-.844,4.01-2.322-.211-.633-.844-.844-1.477-1.055-.211,0-2.111,0-5.7-.211l-.211-2.111h5.487C284.9,182.8,286.374,184.277,286.374,187.232Z" transform="translate(-214.405 -177.102)" fill="#5045ab"/><path d="M291.4,190.554a2.723,2.723,0,0,1-2.322-1.055,6.821,6.821,0,0,1-1.477,4.643,5.509,5.509,0,0,1-4.221,2.111h-2.955L280,194.141h3.166a3.685,3.685,0,0,0,2.533-.844,3.389,3.389,0,0,0,1.055-2.322V183.8h2.322v3.166c0,1.055.844,1.477,2.322,1.477Z" transform="translate(-207.187 -175.991)" fill="#5045ab"/><path d="M295.242,187.443a5.184,5.184,0,0,1-1.055,3.166,3.542,3.542,0,0,1-2.955,1.266,4.056,4.056,0,0,1-2.533-.844,22.387,22.387,0,0,1-3.8.633v-2.11a3.382,3.382,0,0,0,2.111-.422,5.839,5.839,0,0,0,.211-1.688c0-3.166,1.477-4.643,4.01-4.643a3.423,3.423,0,0,1,2.955,1.477A5.184,5.184,0,0,1,295.242,187.443Zm-2.111-.211c0-1.688-.633-2.322-1.9-2.322s-1.9.844-1.9,2.533c0,1.477.633,2.322,1.9,2.322S293.131,188.92,293.131,187.232Z" transform="translate(-201.746 -177.102)" fill="#5045ab"/></g><g transform="translate(188.891)"><path d="M170.141,187.865a3.619,3.619,0,0,1-3.8,3.8A3.4,3.4,0,0,1,163.6,190.4a4.575,4.575,0,0,1-1.055-2.955V184.7h-.422a1.916,1.916,0,0,0-1.477.633,2.28,2.28,0,0,0-.633,1.477V196.94H157.9v-9.5a5.37,5.37,0,0,1,1.055-3.377,4.456,4.456,0,0,1,3.377-1.266h4.432a2.935,2.935,0,0,1,2.955,1.688A10.84,10.84,0,0,1,170.141,187.865Zm-2.111-.422a3.382,3.382,0,0,0-.422-2.111c-.211-.211-1.266-.422-3.166-.422v3.166a1.161,1.161,0,0,0,.633,1.055,3,3,0,0,0,1.266.422A1.917,1.917,0,0,0,168.03,187.443Z" transform="translate(-157.9 -177.102)" fill="#2879c4"/><path d="M173.264,191.986a5.415,5.415,0,0,1-5.7,5.276h-2.955l-.211-2.111h2.744a3.364,3.364,0,0,0,2.533-.844,3.5,3.5,0,0,0,1.055-2.533c-1.9,0-3.166-.211-4.01-.844a3.966,3.966,0,0,1-1.688-3.588,5.373,5.373,0,0,1,1.266-4.01,4.789,4.789,0,0,1,2.744-.633,3.256,3.256,0,0,1,3.377,2.111,11.168,11.168,0,0,1,.422,4.221v2.955Zm-2.111-2.533v-2.322c0-1.477-.633-2.111-1.688-2.111a1.643,1.643,0,0,0-1.477.633,3.628,3.628,0,0,0-.211,1.688,2.216,2.216,0,0,0,1.055,1.9A5.94,5.94,0,0,0,171.154,189.454Z" transform="translate(-150.682 -177.213)" fill="#2879c4"/><path d="M180.242,189.6a2.6,2.6,0,0,1-1.055,2.111,4.425,4.425,0,0,1-2.322.844h-6.754l-.211-2.111h6.965c.844,0,1.266-.211,1.266-.844a1.6,1.6,0,0,0-.422-.844l-5.065-5.276L174.121,182l5.065,5.276C180.03,187.7,180.242,188.543,180.242,189.6Z" transform="translate(-144.574 -177.99)" fill="#2879c4"/><path d="M190.763,192.553a4.541,4.541,0,0,1-2.111-.422c-.211-.211-1.055-.844-2.322-2.111a4.328,4.328,0,0,1-4.01,2.744,3.541,3.541,0,0,1-2.955-1.266,5.3,5.3,0,0,1-1.266-2.955q0-1.9,2.533-4.432l-.633-.633L181.477,182l6.754,7.176,1.055,1.055c.211.211.844.211,1.477.422v1.9Zm-6.332-4.01a1.784,1.784,0,0,0-.422-1.266l-1.688-1.688-1.266,1.266a2.807,2.807,0,0,0-.633,1.688,2.09,2.09,0,0,0,3.588,1.477A1.781,1.781,0,0,0,184.432,188.543Z" transform="translate(-135.468 -177.99)" fill="#2879c4"/><path d="M191.931,194.663H191.3a4.381,4.381,0,0,1-3.166-.844,12.1,12.1,0,0,1-1.477.844H183.7v-2.322h1.688a1.643,1.643,0,0,0,1.477-.633c.211-.211.211-.844.211-1.688V180.1H189.4v10.341c0,.844.211,1.266.633,1.477a12.339,12.339,0,0,0,2.111.211v2.533Z" transform="translate(-129.249 -180.1)" fill="#2879c4"/><path d="M199.974,187.232l-5.065,2.955a10.087,10.087,0,0,1-3.8,1.266c-.633,0-1.9.211-4.01.211v-2.322h1.688a9.79,9.79,0,0,0,4.432-.844c.211-.211,1.688-.844,4.01-2.322-.211-.633-.844-.844-1.477-1.055-.211,0-2.111,0-5.7-.211l-.211-2.111h5.487C198.5,182.8,199.974,184.277,199.974,187.232Z" transform="translate(-125.473 -177.102)" fill="#2879c4"/><path d="M204.9,190.554a2.723,2.723,0,0,1-2.322-1.055,6.821,6.821,0,0,1-1.477,4.643,5.509,5.509,0,0,1-4.221,2.111h-2.955l-.422-2.111h3.166a3.685,3.685,0,0,0,2.533-.844,3.389,3.389,0,0,0,1.055-2.322V183.8h2.322v3.166c0,1.055.844,1.477,2.322,1.477v2.111Z" transform="translate(-118.366 -175.991)" fill="#2879c4"/><path d="M208.742,187.443a5.184,5.184,0,0,1-1.055,3.166,3.542,3.542,0,0,1-2.955,1.266,4.056,4.056,0,0,1-2.533-.844,22.387,22.387,0,0,1-3.8.633v-2.11a3.382,3.382,0,0,0,2.111-.422,5.839,5.839,0,0,0,.211-1.688c0-3.166,1.477-4.643,4.01-4.643a3.423,3.423,0,0,1,2.955,1.477A4.145,4.145,0,0,1,208.742,187.443Zm-1.9-.211c0-1.688-.633-2.322-1.9-2.322s-1.9.844-1.9,2.533c0,1.477.633,2.322,1.9,2.322S206.842,188.92,206.842,187.232Z" transform="translate(-112.924 -177.102)" fill="#2879c4"/></g><path d="M80.852,187.865a4.012,4.012,0,0,1-1.055,2.744,4.175,4.175,0,0,1-2.955,1.055A3.4,3.4,0,0,1,74.1,190.4a4.575,4.575,0,0,1-1.055-2.955V184.7h-.422a1.916,1.916,0,0,0-1.477.633,2.28,2.28,0,0,0-.633,1.477V196.94H68.4v-9.5a5.37,5.37,0,0,1,1.055-3.377,4.456,4.456,0,0,1,3.377-1.266h4.432a2.935,2.935,0,0,1,2.955,1.688A6.3,6.3,0,0,1,80.852,187.865Zm-2.111-.422a3.382,3.382,0,0,0-.422-2.111c-.211-.211-1.266-.422-3.166-.422v3.166a1.161,1.161,0,0,0,.633,1.055,3,3,0,0,0,1.266.422A1.917,1.917,0,0,0,78.742,187.443Z" transform="translate(-68.4 -177.102)" fill="#727272"/><path d="M85.542,191.664H84.064a5.4,5.4,0,0,1-1.688,4.01,5.766,5.766,0,0,1-4.01,1.688H75.411l-.211-2.111h2.744a3.364,3.364,0,0,0,2.533-.844,3.5,3.5,0,0,0,1.055-2.533c-1.9,0-3.166-.211-4.01-.844a3.966,3.966,0,0,1-1.688-3.588,5.373,5.373,0,0,1,1.266-4.01,4.057,4.057,0,0,1,2.533-.633,3.531,3.531,0,0,1,3.588,2.111,10.866,10.866,0,0,1,.633,4.432H85.33v2.322Zm-3.8-2.322v-2.111a4.968,4.968,0,0,0-.422-1.688,2.136,2.136,0,0,0-1.477-.844,1.643,1.643,0,0,0-1.477.633,3.628,3.628,0,0,0-.211,1.688,2.028,2.028,0,0,0,1.266,1.9C79.843,189.343,80.476,189.343,81.743,189.343Z" transform="translate(-60.849 -177.102)" fill="#727272"/><path d="M97.428,187.3a4.242,4.242,0,0,1-.844,2.744,2.841,2.841,0,0,1-2.533,1.055A3.685,3.685,0,0,1,91.1,189.62a3.322,3.322,0,0,1-2.744,1.477,3.954,3.954,0,0,1-2.955-1.688,3.685,3.685,0,0,1-2.955,1.477H79.7v-2.111h2.744c1.055,0,1.477-.633,1.477-1.688v-3.166h2.111V187.3a1.276,1.276,0,0,0,.633,1.266,1.781,1.781,0,0,0,1.477.422c1.055,0,1.477-.422,1.477-1.477v-3.8H91.73v3.377a1.5,1.5,0,0,0,.633,1.266,1.551,1.551,0,0,0,1.266.422c1.055,0,1.477-.422,1.477-1.477v-3.8h2.111v3.8Z" transform="translate(-55.851 -176.324)" fill="#727272"/><path d="M104.163,192.553a4.541,4.541,0,0,1-2.111-.422c-.211-.211-1.055-.844-2.322-2.111a4.328,4.328,0,0,1-4.01,2.744,3.542,3.542,0,0,1-2.955-1.266,5.3,5.3,0,0,1-1.266-2.955q0-1.9,2.533-4.432l-.633-.633L94.877,182l6.754,7.176,1.055,1.055c.211.211.844.211,1.477.422v1.9Zm-6.543-4.01a1.784,1.784,0,0,0-.422-1.266l-1.688-1.688-1.266,1.266a2.807,2.807,0,0,0-.633,1.688A2.09,2.09,0,0,0,97.2,190.02,1.781,1.781,0,0,0,97.62,188.543Z" transform="translate(-42.747 -177.99)" fill="#727272"/><path d="M105.331,194.663H104.7a4.381,4.381,0,0,1-3.166-.844,12.1,12.1,0,0,1-1.477.844H97.1v-2.322h1.688a1.643,1.643,0,0,0,1.477-.633c.211-.211.211-.844.211-1.688V180.1H102.8v10.341c0,.844.211,1.266.633,1.477a12.339,12.339,0,0,0,2.111.211v2.533Z" transform="translate(-36.528 -180.1)" fill="#727272"/><path d="M113.374,187.232l-5.065,2.955a10.087,10.087,0,0,1-3.8,1.266c-.633,0-1.9.211-4.01.211v-2.322h1.688a9.789,9.789,0,0,0,4.432-.844c.211-.211,1.688-.844,4.01-2.322-.211-.633-.844-.844-1.477-1.055-.211,0-2.111,0-5.7-.211l-.211-2.111h5.487C111.9,182.8,113.374,184.277,113.374,187.232Z" transform="translate(-32.752 -177.102)" fill="#727272"/><path d="M118.3,190.554a2.723,2.723,0,0,1-2.322-1.055,6.821,6.821,0,0,1-1.477,4.643,5.509,5.509,0,0,1-4.221,2.111h-2.955l-.422-2.111h3.166a3.685,3.685,0,0,0,2.533-.844,3.389,3.389,0,0,0,1.055-2.322V183.8h2.322v3.166c0,1.055.844,1.477,2.322,1.477Z" transform="translate(-25.645 -175.991)" fill="#727272"/><path d="M122.142,187.443a5.184,5.184,0,0,1-1.055,3.166,3.542,3.542,0,0,1-2.955,1.266,4.056,4.056,0,0,1-2.533-.844,22.388,22.388,0,0,1-3.8.633v-2.11a3.382,3.382,0,0,0,2.11-.422,5.84,5.84,0,0,0,.211-1.688c0-3.166,1.477-4.643,4.01-4.643a3.423,3.423,0,0,1,2.955,1.477A4.144,4.144,0,0,1,122.142,187.443Zm-1.9-.211c0-1.688-.633-2.322-1.9-2.322s-1.9.844-1.9,2.533c0,1.477.633,2.322,1.9,2.322S120.242,188.92,120.242,187.232Z" transform="translate(-20.204 -177.102)" fill="#727272"/></g></g></svg>